<?xml version="1.0" encoding="UTF-8"?>
<svg version="1.1" xmlns="http://www.w3.org/2000/svg" width="303" height="231">
<path d="M0 0 C3.53232517 2.82382128 6.79788315 5.80857469 10 9 C10.78246094 9.75925781 11.56492188 10.51851562 12.37109375 11.30078125 C22.60008279 21.84026237 28.29568845 35.48099145 30 50 C29.906102 52.16953796 29.76604786 54.33799166 29.5625 56.5 C29.39361201 60.36331283 29.57299605 61.52114557 32.1875 64.453125 C34.11813109 65.99553136 36.09290478 67.4841138 38.10546875 68.91796875 C47.72050543 75.83404777 53.1618651 85.6848307 55.8125 97 C56.02841797 97.87011719 56.24433594 98.74023438 56.46679688 99.63671875 C56.99048165 101.75473272 57.49706297 103.87696367 58 106 C58.78375 105.938125 59.5675 105.87625 60.375 105.8125 C61.24125 105.874375 62.1075 105.93625 63 106 C67.9331275 113.39969125 64.87292118 125.42492161 63.26977539 133.80981445 C62.98712522 135.22146027 62.69926884 136.63207544 62.40576172 138.04150391 C62.0418371 139.79806425 61.70836865 141.56086969 61.37890625 143.32421875 C58.87165076 155.23757559 52.57544328 163.77358972 44.29296875 172.45703125 C41.80962997 175.21112588 39.95917688 177.97918818 38.23046875 181.24609375 C34.65661675 186.34025104 29.52438156 188.2560875 23.875 190.1875 C23.12017334 190.44724609 22.36534668 190.70699219 21.58764648 190.97460938 C13.01600417 193.80772613 5.68880607 194.70808173 -3.14453125 192.6015625 C-7.93681638 191.59197028 -12.81354662 191.17474815 -17.6796875 190.66015625 C-21.20259399 190.22614433 -24.46006056 189.30559464 -27.8671875 188.3203125 C-33.95552319 186.7580172 -38.2304896 187.38162839 -44.25 188.8125 C-57.20112188 191.36149518 -70.03319677 191.43686629 -83.1875 191.4375 C-84.19840698 191.4429483 -85.20931396 191.44839661 -86.25085449 191.45401001 C-98.20291196 191.50181533 -109.80226181 190.93623054 -121.61491394 189.02854919 C-131.80340171 187.40587787 -141.65376229 187.92717337 -151.66796875 190.53125 C-155.91925765 191.38578043 -160.25645633 191.46054039 -164.578125 191.7109375 C-167.56733319 191.96345052 -170.27786859 192.43002434 -173.1875 193.125 C-181.93945803 194.96602677 -189.50654736 193.07543305 -197.8125 190.25 C-198.52994385 190.01023438 -199.2473877 189.77046875 -199.98657227 189.5234375 C-206.50222103 187.16708497 -211.25300529 183.82415261 -214.875 177.75 C-217.00630331 174.37450654 -219.27986732 171.48431553 -222 168.5625 C-234.44072292 154.69998017 -238.19996042 136.51535501 -238.125 118.25 C-238.12886719 117.29222656 -238.13273438 116.33445313 -238.13671875 115.34765625 C-238.13542969 114.43371094 -238.13414062 113.51976563 -238.1328125 112.578125 C-238.13168457 111.74700195 -238.13055664 110.91587891 -238.12939453 110.05957031 C-238 108 -238 108 -237 106 C-235.35 106 -233.7 106 -232 106 C-231.79020508 105.18547363 -231.79020508 105.18547363 -231.57617188 104.35449219 C-226.5118523 85.11496299 -219.38651831 71.73211168 -201.69140625 61.34765625 C-198.73655963 59.86808864 -195.74354952 58.83751362 -192.625 57.75 C-188.44055255 56.12932012 -188.44055255 56.12932012 -185.6328125 52.81640625 C-185.03420834 51.11859534 -184.47932229 49.40485434 -183.96484375 47.6796875 C-182.15456576 42.65195188 -178.52357492 38.93183226 -175 35 C-173.96166016 33.82050781 -173.96166016 33.82050781 -172.90234375 32.6171875 C-162.41975801 21.39264015 -148.10962145 14.76234905 -132.7734375 13.796875 C-125.70825862 13.69942426 -119.51259561 14.27091673 -112.71875 16.24609375 C-109.82925281 17.047348 -106.96281224 17.55122109 -104 18 C-103.52433594 17.30777344 -103.52433594 17.30777344 -103.0390625 16.6015625 C-92.90696086 2.43901159 -79.09739075 -9.07769401 -61.65966797 -12.61621094 C-39.42347582 -15.82488489 -18.31058631 -13.54347772 0 0 Z " fill="#FBFCFD" transform="translate(238,13)"/>
<path d="M0 0 C3.53232517 2.82382128 6.79788315 5.80857469 10 9 C10.78246094 9.75925781 11.56492188 10.51851562 12.37109375 11.30078125 C22.60008279 21.84026237 28.29568845 35.48099145 30 50 C29.906102 52.16953796 29.76604786 54.33799166 29.5625 56.5 C29.39361201 60.36331283 29.57299605 61.52114557 32.1875 64.453125 C34.11813109 65.99553136 36.09290478 67.4841138 38.10546875 68.91796875 C47.72050543 75.83404777 53.1618651 85.6848307 55.8125 97 C56.02841797 97.87011719 56.24433594 98.74023438 56.46679688 99.63671875 C56.99048165 101.75473272 57.49706297 103.87696367 58 106 C58.78375 105.938125 59.5675 105.87625 60.375 105.8125 C61.24125 105.874375 62.1075 105.93625 63 106 C67.9331275 113.39969125 64.87292118 125.42492161 63.26977539 133.80981445 C62.98712522 135.22146027 62.69926884 136.63207544 62.40576172 138.04150391 C62.0418371 139.79806425 61.70836865 141.56086969 61.37890625 143.32421875 C58.87165076 155.23757559 52.57544328 163.77358972 44.29296875 172.45703125 C41.80962997 175.21112588 39.95917688 177.97918818 38.23046875 181.24609375 C34.65661675 186.34025104 29.52438156 188.2560875 23.875 190.1875 C23.12017334 190.44724609 22.36534668 190.70699219 21.58764648 190.97460938 C13.02856917 193.80357312 5.70018047 194.7152117 -3.12109375 192.60546875 C-7.47200451 191.69041968 -11.87249517 191.24932102 -16.29174805 190.78588867 C-20.42283585 190.31836297 -24.10545408 189.45138357 -28 188 C-28 187.34 -28 186.68 -28 186 C-24.85324759 186.28223216 -21.70784815 186.57755706 -18.5625 186.875 C-17.68400391 186.95363281 -16.80550781 187.03226563 -15.90039062 187.11328125 C-10.80987206 187.60167049 -5.94056132 188.38584028 -0.96362305 189.5546875 C7.65400772 191.50900287 14.88482729 189.70299981 23 186.75 C23.8254834 186.45037354 24.6509668 186.15074707 25.50146484 185.84204102 C32.75441419 183.03023623 35.71904695 179.45812346 40 173 C41.5860329 171.15095662 43.19105069 169.31806599 44.8125 167.5 C59.06082215 150.69448865 62.71168543 129.46633031 63 108 C61.02 108.66 59.04 109.32 57 110 C56.92483154 110.67877197 56.84966309 111.35754395 56.7722168 112.05688477 C52.65203218 148.85203314 52.65203218 148.85203314 47 159 C46.54109375 159.84691406 46.0821875 160.69382813 45.609375 161.56640625 C42.33529329 167.15300684 38.52791601 171.84959757 34 176.4375 C33.27103516 177.18157104 33.27103516 177.18157104 32.52734375 177.94067383 C29.00037057 181.38476314 25.35689673 183.69629085 21 186 C22.27713186 182.16860441 24.0104453 181.20246327 27.1875 178.75 C31.70818781 175.10898211 35.66399237 171.75425686 39 167 C39.97066406 165.64455078 39.97066406 165.64455078 40.9609375 164.26171875 C47.78091648 153.67680714 49.84256244 142.27518518 52 130 C51.38125 129.731875 50.7625 129.46375 50.125 129.1875 C48 128 48 128 46 125 C45.98582031 125.79921875 45.97164063 126.5984375 45.95703125 127.421875 C45.4785751 138.43929771 42.96227505 147.25222021 35.2265625 155.265625 C32.96442083 158.46432214 33.01730052 162.18523621 33 166 C32.34 166 31.68 166 31 166 C31 163.36 31 160.72 31 158 C30.37351562 158.28875 29.74703125 158.5775 29.1015625 158.875 C28.28429687 159.24625 27.46703125 159.6175 26.625 160 C25.81289063 160.37125 25.00078125 160.7425 24.1640625 161.125 C22 162 22 162 20 162 C19.731875 162.5775 19.46375 163.155 19.1875 163.75 C17.98280141 166.0325868 16.59201885 167.9737942 15 170 C15.99 170.33 16.98 170.66 18 171 C18 171.66 18 172.32 18 173 C15.36 173.66 12.72 174.32 10 175 C10 174.01 10 173.02 10 172 C8.68 172 7.36 172 6 172 C6.33 171.01 6.66 170.02 7 169 C8.91211807 168.06071393 10.82763525 167.12755743 12.76171875 166.234375 C15.17067372 164.90587627 16.88745486 163.39444221 18.875 161.5 C23.14807624 157.55757847 29.0011484 154 35 154 C35.27714844 153.44054687 35.55429687 152.88109375 35.83984375 152.3046875 C36.61970009 150.75547794 37.42500246 149.21884284 38.25390625 147.6953125 C41.64411793 141.03632955 42.42667144 135.55436935 42.6875 128.12890625 C43.10262101 123.97250716 44.22795522 122.04030718 47 119 C47.99 119.33 48.98 119.66 50 120 C50 122.31 50 124.62 50 127 C50.99 127.33 51.98 127.66 53 128 C52.67 126.80375 52.34 125.6075 52 124.375 C51.06131073 120.24476722 50.95370116 116.47896356 51.0625 112.25 C51.19249813 103.68869428 50.50900328 94.85337543 45 88 C44.5875 86.948125 44.175 85.89625 43.75 84.8125 C38.29175096 71.92115805 25.43715961 63.47235023 13 58 C16.70781672 56.76406109 17.67510253 57.4321868 21.1875 58.9375 C22.08855469 59.31777344 22.98960937 59.69804688 23.91796875 60.08984375 C24.60503906 60.39019531 25.29210937 60.69054687 26 61 C23.89950889 42.46625495 19.57269549 28.57269549 6 15 C5.36191406 14.36191406 4.72382813 13.72382813 4.06640625 13.06640625 C-2.54369393 6.89606326 -10.5429635 2.16945609 -19 -1 C-19 -1.66 -19 -2.32 -19 -3 C-19.94101563 -3.13277344 -20.88203125 -3.26554688 -21.8515625 -3.40234375 C-23.71941406 -3.66724609 -23.71941406 -3.66724609 -25.625 -3.9375 C-27.46964844 -4.19853516 -27.46964844 -4.19853516 -29.3515625 -4.46484375 C-31.55444289 -4.78796432 -33.75351722 -5.14209754 -35.94140625 -5.5546875 C-48.70870449 -7.41352786 -60.64862015 -6.06704006 -72.46875 -1.05078125 C-74.11357298 -0.36797665 -75.78110248 0.26325131 -77.46875 0.83203125 C-87.27709072 4.23080755 -95.10743641 11.3819034 -102 19 C-102.33 19.99 -102.66 20.98 -103 22 C-102.2678125 22.26167969 -101.535625 22.52335937 -100.78125 22.79296875 C-94.36603839 25.57709851 -88.6190357 30.78495969 -84 36 C-84 36.66 -84 37.32 -84 38 C-86.79238709 36.72416797 -88.80249205 35.37883583 -91 33.25 C-103.72990972 22.10449964 -119.14356678 20.99539368 -135.27197266 21.76171875 C-146.20175376 22.7163873 -155.5917987 27.00328375 -164 34 C-165.04027344 34.78310547 -165.04027344 34.78310547 -166.1015625 35.58203125 C-176.97701834 44.21101262 -182.62159592 56.49172876 -184.75 70 C-185.49147962 78.33281858 -185.29550027 86.74118581 -184 95 C-184.66 95 -185.32 95 -186 95 C-189.14991713 82.82032044 -190.99171107 70.22461515 -187 58 C-189.475 58.495 -189.475 58.495 -192 59 C-192 59.66 -192 60.32 -192 61 C-192.70125 61.3403125 -193.4025 61.680625 -194.125 62.03125 C-206.62672823 68.41800246 -215.98386787 78.43567235 -220.44921875 91.99609375 C-222.81067907 100.58778981 -223.51363457 109.11743134 -224 118 C-223.1028125 118.3403125 -223.1028125 118.3403125 -222.1875 118.6875 C-219.32497089 120.40501746 -218.39235849 121.97892587 -217 125 C-216.734375 127.83984375 -216.734375 127.83984375 -216.75 130.9375 C-216.30614976 139.3996013 -212.86723707 147.1943134 -207.53515625 153.8203125 C-205.66953616 155.25394422 -204.09077547 155.68547157 -201.8125 156.25 C-197.19815873 157.65827298 -194.41215691 159.91079837 -191.01953125 163.28125 C-186.24992942 167.3404856 -180.53597968 168.8697476 -174.625 170.5 C-170.31040214 171.70281055 -166.06798158 172.93417784 -161.890625 174.55859375 C-158.35266114 175.91961701 -154.84692196 176.81037951 -151.125 177.5625 C-149.90425781 177.81128906 -148.68351562 178.06007812 -147.42578125 178.31640625 C-145.73001953 178.65478516 -145.73001953 178.65478516 -144 179 C-143.18917969 179.17402344 -142.37835938 179.34804687 -141.54296875 179.52734375 C-135.89337432 180.72454327 -130.20080896 181.64798487 -124.5 182.5625 C-123.71665283 182.68947266 -122.93330566 182.81644531 -122.1262207 182.94726562 C-113.07323465 184.37236869 -104.1098285 185.15816942 -94.9453125 185.23828125 C-94.01355194 185.24798447 -93.08179138 185.25768768 -92.12179565 185.26768494 C-89.12281941 185.29249496 -86.12406847 185.30519746 -83.125 185.3125 C-82.10132324 185.31511841 -81.07764648 185.31773682 -80.02294922 185.32043457 C-58.42285758 185.32634916 -37.66813803 183.74141952 -17 177 C-14.81809982 176.39605825 -12.63054778 175.81211694 -10.4375 175.25 C-9.50808594 175.00765625 -8.57867187 174.7653125 -7.62109375 174.515625 C-5.008939 174.00175849 -2.65451166 173.90399596 0 174 C-3.61905236 177.16548966 -7.59012198 178.5201313 -12.0625 180.0625 C-13.1928064 180.45937012 -13.1928064 180.45937012 -14.34594727 180.86425781 C-19.50950189 182.6260514 -24.57183455 183.88249481 -29.99609375 184.578125 C-32.21995339 184.85577487 -32.21995339 184.85577487 -34 187 C-49.4181242 192.20495344 -67.16028367 191.41116442 -83.1875 191.4375 C-84.19750061 191.44340149 -85.20750122 191.44930298 -86.24810791 191.4553833 C-98.20078935 191.50258118 -109.80171182 190.93631937 -121.61491394 189.02854919 C-131.80340171 187.40587787 -141.65376229 187.92717337 -151.66796875 190.53125 C-155.91925765 191.38578043 -160.25645633 191.46054039 -164.578125 191.7109375 C-167.56733319 191.96345052 -170.27786859 192.43002434 -173.1875 193.125 C-181.93945803 194.96602677 -189.50654736 193.07543305 -197.8125 190.25 C-198.52994385 190.01023438 -199.2473877 189.77046875 -199.98657227 189.5234375 C-206.50222103 187.16708497 -211.25300529 183.82415261 -214.875 177.75 C-217.00630331 174.37450654 -219.27986732 171.48431553 -222 168.5625 C-234.44072292 154.69998017 -238.19996042 136.51535501 -238.125 118.25 C-238.12886719 117.29222656 -238.13273438 116.33445313 -238.13671875 115.34765625 C-238.13542969 114.43371094 -238.13414062 113.51976563 -238.1328125 112.578125 C-238.13168457 111.74700195 -238.13055664 110.91587891 -238.12939453 110.05957031 C-238 108 -238 108 -237 106 C-235.35 106 -233.7 106 -232 106 C-231.79020508 105.18547363 -231.79020508 105.18547363 -231.57617188 104.35449219 C-226.5118523 85.11496299 -219.38651831 71.73211168 -201.69140625 61.34765625 C-198.73655963 59.86808864 -195.74354952 58.83751362 -192.625 57.75 C-188.44055255 56.12932012 -188.44055255 56.12932012 -185.6328125 52.81640625 C-185.03420834 51.11859534 -184.47932229 49.40485434 -183.96484375 47.6796875 C-182.15456576 42.65195188 -178.52357492 38.93183226 -175 35 C-173.96166016 33.82050781 -173.96166016 33.82050781 -172.90234375 32.6171875 C-162.41975801 21.39264015 -148.10962145 14.76234905 -132.7734375 13.796875 C-125.70825862 13.69942426 -119.51259561 14.27091673 -112.71875 16.24609375 C-109.82925281 17.047348 -106.96281224 17.55122109 -104 18 C-103.52433594 17.30777344 -103.52433594 17.30777344 -103.0390625 16.6015625 C-92.90696086 2.43901159 -79.09739075 -9.07769401 -61.65966797 -12.61621094 C-39.42347582 -15.82488489 -18.31058631 -13.54347772 0 0 Z " fill="#41A7DE" transform="translate(238,13)"/>
<path d="M0 0 C3.53232517 2.82382128 6.79788315 5.80857469 10 9 C10.78246094 9.75925781 11.56492188 10.51851562 12.37109375 11.30078125 C22.60008279 21.84026237 28.29568845 35.48099145 30 50 C29.906102 52.16953796 29.76604786 54.33799166 29.5625 56.5 C29.39361201 60.36331283 29.57299605 61.52114557 32.1875 64.453125 C34.11813109 65.99553136 36.09290478 67.4841138 38.10546875 68.91796875 C47.72050543 75.83404777 53.1618651 85.6848307 55.8125 97 C56.02841797 97.87011719 56.24433594 98.74023438 56.46679688 99.63671875 C56.99048165 101.75473272 57.49706297 103.87696367 58 106 C58.78375 105.938125 59.5675 105.87625 60.375 105.8125 C61.674375 105.9053125 61.674375 105.9053125 63 106 C67.9331275 113.39969125 64.87292118 125.42492161 63.26977539 133.80981445 C62.98712522 135.22146027 62.69926884 136.63207544 62.40576172 138.04150391 C62.0418371 139.79806425 61.70836865 141.56086969 61.37890625 143.32421875 C58.87165076 155.23757559 52.57544328 163.77358972 44.29296875 172.45703125 C41.80962997 175.21112588 39.95917688 177.97918818 38.23046875 181.24609375 C34.65661675 186.34025104 29.52438156 188.2560875 23.875 190.1875 C23.12017334 190.44724609 22.36534668 190.70699219 21.58764648 190.97460938 C13.02856917 193.80357312 5.70018047 194.7152117 -3.12109375 192.60546875 C-7.47200451 191.69041968 -11.87249517 191.24932102 -16.29174805 190.78588867 C-20.42283585 190.31836297 -24.10545408 189.45138357 -28 188 C-28 187.34 -28 186.68 -28 186 C-24.85324759 186.28223216 -21.70784815 186.57755706 -18.5625 186.875 C-17.68400391 186.95363281 -16.80550781 187.03226563 -15.90039062 187.11328125 C-10.80987206 187.60167049 -5.94056132 188.38584028 -0.96362305 189.5546875 C7.65400772 191.50900287 14.88482729 189.70299981 23 186.75 C23.8254834 186.45037354 24.6509668 186.15074707 25.50146484 185.84204102 C32.75441419 183.03023623 35.71904695 179.45812346 40 173 C41.5860329 171.15095662 43.19105069 169.31806599 44.8125 167.5 C59.06082215 150.69448865 62.71168543 129.46633031 63 108 C60.03 108.99 60.03 108.99 57 110 C56.88724731 111.01815796 56.88724731 111.01815796 56.7722168 112.05688477 C52.65203218 148.85203314 52.65203218 148.85203314 47 159 C46.54109375 159.84691406 46.0821875 160.69382813 45.609375 161.56640625 C42.33529329 167.15300684 38.52791601 171.84959757 34 176.4375 C33.27103516 177.18157104 33.27103516 177.18157104 32.52734375 177.94067383 C29.00037057 181.38476314 25.35689673 183.69629085 21 186 C22.27713186 182.16860441 24.0104453 181.20246327 27.1875 178.75 C31.70818781 175.10898211 35.66399237 171.75425686 39 167 C39.64710938 166.09636719 40.29421875 165.19273437 40.9609375 164.26171875 C47.78091648 153.67680714 49.84256244 142.27518518 52 130 C51.38125 129.731875 50.7625 129.46375 50.125 129.1875 C48 128 48 128 46 125 C45.98582031 125.79921875 45.97164062 126.5984375 45.95703125 127.421875 C45.4785751 138.43929771 42.96227505 147.25222021 35.2265625 155.265625 C32.96442083 158.46432214 33.01730052 162.18523621 33 166 C32.34 166 31.68 166 31 166 C31 163.36 31 160.72 31 158 C30.06027344 158.433125 30.06027344 158.433125 29.1015625 158.875 C28.28429687 159.24625 27.46703125 159.6175 26.625 160 C25.81289063 160.37125 25.00078125 160.7425 24.1640625 161.125 C22 162 22 162 20 162 C19.731875 162.5775 19.46375 163.155 19.1875 163.75 C17.98280141 166.0325868 16.59201885 167.9737942 15 170 C15.99 170.33 16.98 170.66 18 171 C18 171.66 18 172.32 18 173 C15.36 173.66 12.72 174.32 10 175 C10 174.01 10 173.02 10 172 C8.68 172 7.36 172 6 172 C6.33 171.01 6.66 170.02 7 169 C8.91211807 168.06071393 10.82763525 167.12755743 12.76171875 166.234375 C15.17067372 164.90587627 16.88745486 163.39444221 18.875 161.5 C23.14807624 157.55757847 29.0011484 154 35 154 C35.27714844 153.44054687 35.55429687 152.88109375 35.83984375 152.3046875 C36.61970009 150.75547794 37.42500246 149.21884284 38.25390625 147.6953125 C41.64411793 141.03632955 42.42667144 135.55436935 42.6875 128.12890625 C43.10262101 123.97250716 44.22795522 122.04030718 47 119 C47.99 119.33 48.98 119.66 50 120 C50 122.31 50 124.62 50 127 C50.99 127.33 51.98 127.66 53 128 C52.67 126.80375 52.34 125.6075 52 124.375 C51.06131073 120.24476722 50.95370116 116.47896356 51.0625 112.25 C51.19249813 103.68869428 50.50900328 94.85337543 45 88 C44.38125 86.4221875 44.38125 86.4221875 43.75 84.8125 C38.29175096 71.92115805 25.43715961 63.47235023 13 58 C16.70781672 56.76406109 17.67510253 57.4321868 21.1875 58.9375 C22.08855469 59.31777344 22.98960937 59.69804688 23.91796875 60.08984375 C24.60503906 60.39019531 25.29210937 60.69054687 26 61 C23.89950889 42.46625495 19.57269549 28.57269549 6 15 C5.36191406 14.36191406 4.72382813 13.72382813 4.06640625 13.06640625 C-2.54369393 6.89606326 -10.5429635 2.16945609 -19 -1 C-19 -1.66 -19 -2.32 -19 -3 C-19.94101563 -3.13277344 -20.88203125 -3.26554688 -21.8515625 -3.40234375 C-23.71941406 -3.66724609 -23.71941406 -3.66724609 -25.625 -3.9375 C-27.46964844 -4.19853516 -27.46964844 -4.19853516 -29.3515625 -4.46484375 C-31.55444289 -4.78796432 -33.75351722 -5.14209754 -35.94140625 -5.5546875 C-48.70870449 -7.41352786 -60.64862015 -6.06704006 -72.46875 -1.05078125 C-74.11357298 -0.36797665 -75.78110248 0.26325131 -77.46875 0.83203125 C-87.27709072 4.23080755 -95.10743641 11.3819034 -102 19 C-102.33 19.99 -102.66 20.98 -103 22 C-102.2678125 22.26167969 -101.535625 22.52335937 -100.78125 22.79296875 C-94.36603839 25.57709851 -88.6190357 30.78495969 -84 36 C-84 36.66 -84 37.32 -84 38 C-86.79238709 36.72416797 -88.80249205 35.37883583 -91 33.25 C-103.72990972 22.10449964 -119.14356678 20.99539368 -135.27197266 21.76171875 C-146.18476255 22.71490319 -155.61894179 26.98819905 -164 34 C-164.72832031 34.58007812 -165.45664063 35.16015625 -166.20703125 35.7578125 C-170.62684933 39.41502746 -173.8655368 43.20035322 -177 48 C-178.65 47.67 -180.3 47.34 -182 47 C-180.19674208 37.71732005 -170.57056921 29.21140962 -163.17578125 24.015625 C-149.70069164 15.77204077 -134.39224393 11.65668705 -118.6328125 14.63671875 C-116.65341046 15.14267563 -114.68056433 15.67573481 -112.71875 16.24609375 C-109.82925281 17.047348 -106.96281224 17.55122109 -104 18 C-103.52433594 17.30777344 -103.52433594 17.30777344 -103.0390625 16.6015625 C-92.90696086 2.43901159 -79.09739075 -9.07769401 -61.65966797 -12.61621094 C-39.42347582 -15.82488489 -18.31058631 -13.54347772 0 0 Z " fill="#3FA5DC" transform="translate(238,13)"/>
<path d="M0 0 C2.97 0 5.94 0 9 0 C9.35964244 8.22445477 8.16357894 16.19039506 6.97363281 24.30297852 C6.62448451 26.69102575 6.28816004 29.08063953 5.953125 31.47070312 C5.73253182 33.00531791 5.51120306 34.53982718 5.2890625 36.07421875 C5.14049301 37.13379036 5.14049301 37.13379036 4.98892212 38.21476746 C4.37589007 42.33153247 3.37431366 46.07846101 2 50 C1.42612557 53.57874471 0.995827 57.15965079 0.5625 60.7578125 C0.06640719 63.61723632 -0.52836343 65.53500874 -2 68 C-4.64 68 -7.28 68 -10 68 C-9.67 66.35 -9.34 64.7 -9 63 C-9.60585937 63.433125 -10.21171875 63.86625 -10.8359375 64.3125 C-18.64473617 69.50234773 -23.76568009 69.77227671 -32.8125 68.4375 C-37.00260997 66.54784256 -38.85117835 63.98686331 -41 60 C-43.85731755 51.42804734 -42.11227343 41.29156619 -39 33 C-35.43166074 26.39690493 -29.69647842 21.34823921 -23 18 C-14.89769542 17.29994252 -8.93550766 17.64830892 -2 22 C-1.93941406 20.91460937 -1.87882812 19.82921875 -1.81640625 18.7109375 C-1.73193936 17.26561514 -1.64729449 15.82030318 -1.5625 14.375 C-1.52318359 13.66214844 -1.48386719 12.94929688 -1.44335938 12.21484375 C-1.19690319 8.08196318 -0.76529947 4.07730976 0 0 Z " fill="#44A7DD" transform="translate(203,74)"/>
<path d="M0 0 C0.33 0 0.66 0 1 0 C1.03738281 0.72960937 1.07476563 1.45921875 1.11328125 2.2109375 C1.54137005 9.00999496 2.32429538 15.65693147 3.4375 22.375 C3.55971924 23.12313965 3.68193848 23.8712793 3.80786133 24.64208984 C4.5882583 29.19871572 5.65200281 33.57008988 7 38 C7.350625 39.175625 7.70125 40.35125 8.0625 41.5625 C13.25199719 54.96652792 23.11984947 66.16415603 35 74 C32.74778942 71.67513747 30.54718546 69.43731751 28.015625 67.4140625 C12.52459524 54.83446741 7.19976309 38.30581551 5 19 C5.639375 18.566875 6.27875 18.13375 6.9375 17.6875 C9.26746003 16.08760823 9.26746003 16.08760823 10 13 C10.66 13 11.32 13 12 13 C11.979375 13.90878906 11.95875 14.81757813 11.9375 15.75390625 C12.1144358 26.53593173 15.08517975 34.02420273 21 43 C21.57621094 43.53753906 22.15242188 44.07507813 22.74609375 44.62890625 C24.55539206 46.60729786 24.30152227 48.06498784 24.1875 50.6875 C24.16042969 51.49574219 24.13335938 52.30398437 24.10546875 53.13671875 C24.07066406 53.75160156 24.03585938 54.36648437 24 55 C24.99 54.505 24.99 54.505 26 54 C26.40729228 51.67843403 26.74438677 49.3431213 27 47 C32.60418562 48.27187191 36.34982703 50.0294395 40.5 54.0625 C44.24277068 57.64254152 46.77308973 58.77800108 51.82421875 59.51953125 C54.2847768 60.06288608 55.79673414 60.96550401 57.875 62.375 C67.37925168 68.71736756 79.01216912 70.57829753 90 73 C84.65652059 76.56231961 80.8677774 77.30980216 74.4375 77.5 C68.3671943 77.74708615 62.58891818 78.20738156 56.65234375 79.59765625 C48.99910588 80.75860397 42.55806615 79.69607181 35.25 77.3125 C34.42628906 77.06822266 33.60257813 76.82394531 32.75390625 76.57226562 C25.83699175 74.37244177 21.99407604 70.96012406 18.1875 64.75 C16.02836176 61.39195724 13.71706155 58.48657576 11 55.5625 C0.26177042 43.69716617 -4.49695372 28.42586954 -5.375 12.5625 C-4.93588148 8.39087403 -4.04797364 7.67852229 -1 5 C-0.20318682 2.35815459 -0.20318682 2.35815459 0 0 Z " fill="#F5FAF7" transform="translate(7,124)"/>
<path d="M0 0 C4.04680017 2.04356686 7.5947965 4.56804015 9.6484375 8.75 C11.01168923 14.35038549 10.66066892 20.41756799 10.2265625 26.125 C9.2265625 27.125 9.2265625 27.125 5.71655273 27.23852539 C4.15607828 27.23836626 2.59559857 27.23267142 1.03515625 27.22265625 C0.21531754 27.2212413 -0.60452118 27.21982635 -1.44920349 27.21836853 C-4.07815132 27.21275289 -6.70701523 27.20019779 -9.3359375 27.1875 C-11.11393107 27.18248701 -12.89192596 27.17792376 -14.66992188 27.17382812 C-19.03779295 27.16277839 -23.40560098 27.14550331 -27.7734375 27.125 C-27.51756345 28.89805664 -27.24316011 30.66844608 -26.9609375 32.4375 C-26.81011719 33.42363281 -26.65929687 34.40976563 -26.50390625 35.42578125 C-25.72572508 38.30130632 -25.12842406 39.36303669 -22.7734375 41.125 C-17.53799486 42.87014755 -12.59687728 42.76658066 -7.3984375 40.9375 C-4.59655146 39.31950001 -4.59655146 39.31950001 -3.4609375 36.4375 C-2.9040625 35.674375 -2.3471875 34.91125 -1.7734375 34.125 C1.2648896 33.67850749 4.17722797 33.83732693 7.2265625 34.125 C6.29147495 38.61342026 4.38076621 41.80884452 1.2265625 45.125 C-6.39888439 50.08971591 -13.81115175 50.84239874 -22.7734375 50.125 C-27.81707871 48.97069727 -31.62356211 46.91968747 -34.8359375 42.8125 C-38.81572301 35.445077 -37.64579523 25.56078899 -35.7109375 17.6875 C-33.08757339 10.21526385 -26.65390611 3.47961205 -19.546875 0.05078125 C-13.40376695 -1.99980552 -6.16646656 -1.94547677 0 0 Z " fill="#41A5DC" transform="translate(96.7734375,92.875)"/>
<path d="M0 0 C1.32 0 2.64 0 4 0 C4 1.32 4 2.64 4 4 C4.66 4.33 5.32 4.66 6 5 C5.67 7.97 5.34 10.94 5 14 C7.17038477 13.20700294 7.17038477 13.20700294 7.6328125 11.15234375 C7.79523438 10.42144531 7.95765625 9.69054687 8.125 8.9375 C8.29257813 8.20402344 8.46015625 7.47054687 8.6328125 6.71484375 C8.81457031 5.86599609 8.81457031 5.86599609 9 5 C10.98 5 12.96 5 15 5 C15 4.01 15 3.02 15 2 C16.32 2.33 17.64 2.66 19 3 C19 3.66 19 4.32 19 5 C20.65 5 22.3 5 24 5 C23.67 7.97 23.34 10.94 23 14 C25.17038477 13.20700294 25.17038477 13.20700294 25.6328125 11.15234375 C25.79523438 10.42144531 25.95765625 9.69054687 26.125 8.9375 C26.29257813 8.20402344 26.46015625 7.47054687 26.6328125 6.71484375 C26.81457031 5.86599609 26.81457031 5.86599609 27 5 C30.45831586 4.97105453 33.91660072 4.95322 37.375 4.9375 C38.85226563 4.92493164 38.85226563 4.92493164 40.359375 4.91210938 C41.77089844 4.90727539 41.77089844 4.90727539 43.2109375 4.90234375 C44.51490479 4.89448853 44.51490479 4.89448853 45.84521484 4.88647461 C48 5 48 5 50 6 C50.33 4.35 50.66 2.7 51 1 C52.65 1 54.3 1 56 1 C55.67 2.32 55.34 3.64 55 5 C55.78375 4.95875 56.5675 4.9175 57.375 4.875 C60 5 60 5 62 7 C62.33 5.02 62.66 3.04 63 1 C72.91527563 -0.404124 72.91527563 -0.404124 77 1 C77.495 1.99 77.495 1.99 78 3 C79.32 3 80.64 3 82 3 C82 3.66 82 4.32 82 5 C83.65 5 85.3 5 87 5 C87.495 6.98 87.495 6.98 88 9 C88.66 7.68 89.32 6.36 90 5 C91.32 5 92.64 5 94 5 C93.31143338 8.62358182 91.78350126 11.47634029 90 14.6875 C89.46375 15.66074219 88.9275 16.63398438 88.375 17.63671875 C87 20 87 20 86 21 C84.00041636 21.04080783 81.99954746 21.04254356 80 21 C80 20.34 80 19.68 80 19 C78.68 18.34 77.36 17.68 76 17 C75.505 17.495 75.505 17.495 75 18 C72.64686445 18.07271741 70.29166332 18.08370868 67.9375 18.0625 C66.00197266 18.04896484 66.00197266 18.04896484 64.02734375 18.03515625 C63.02832031 18.02355469 62.02929688 18.01195312 61 18 C60.505 17.01 60.505 17.01 60 16 C59.34 16.66 58.68 17.32 58 18 C55.95288086 18.24291992 55.95288086 18.24291992 53.46484375 18.23046875 C52.57345703 18.22853516 51.68207031 18.22660156 50.76367188 18.22460938 C49.83103516 18.21236328 48.89839844 18.20011719 47.9375 18.1875 C47.00099609 18.18685547 46.06449219 18.18621094 45.09960938 18.18554688 C38.14019224 18.14019224 38.14019224 18.14019224 37 17 C36.8125 14.5625 36.8125 14.5625 37 12 C37.66 11.34 38.32 10.68 39 10 C38.01 10 37.02 10 36 10 C35.34 12.64 34.68 15.28 34 18 C23.33333333 18 12.66666667 18 2 18 C1.34 16.35 0.68 14.7 0 13 C-0.33 14.65 -0.66 16.3 -1 18 C-2.65 18 -4.3 18 -6 18 C-5.67 13.71 -5.34 9.42 -5 5 C-4.34 5 -3.68 5 -3 5 C-2.5359375 4.0409375 -2.5359375 4.0409375 -2.0625 3.0625 C-1 1 -1 1 0 0 Z M67 3 C68 7 68 7 68 7 Z M72 3 C73 6 73 6 73 6 Z M71 6 C72 10 72 10 72 10 Z M76 8 C77 12 77 12 77 12 Z M18 9 C17.67 10.65 17.34 12.3 17 14 C17.99 14.495 17.99 14.495 19 15 C19 13.02 19 11.04 19 9 C18.67 9 18.34 9 18 9 Z M55 9 C54.67 10.65 54.34 12.3 54 14 C54.99 14 55.98 14 57 14 C57.33 12.35 57.66 10.7 58 9 C57.01 9 56.02 9 55 9 Z M66 9 C67 13 67 13 67 13 Z M81 9 C81.33 11.97 81.66 14.94 82 18 C82.66 18 83.32 18 84 18 C83.67 15.03 83.34 12.06 83 9 C82.34 9 81.68 9 81 9 Z M30 10 C31 14 31 14 31 14 Z M70 12 C71 16 71 16 71 16 Z M41 13 C41.33 13.66 41.66 14.32 42 15 C42.66 14.34 43.32 13.68 44 13 C43.01 13 42.02 13 41 13 Z " fill="#FBFBFB" transform="translate(146,210)"/>
<path d="M0 0 C2.0875118 3.1312677 1.78269661 5.57494409 1.5 9.25 C-1.47 9.25 -4.44 9.25 -7.5 9.25 C-7.768125 8.445625 -8.03625 7.64125 -8.3125 6.8125 C-8.9003125 5.5440625 -8.9003125 5.5440625 -9.5 4.25 C-14.57039542 2.55986819 -19.50885438 2.55919438 -24.5625 4.3125 C-25.201875 4.951875 -25.84125 5.59125 -26.5 6.25 C-26.5 8.56 -26.5 10.87 -26.5 13.25 C-17.095 15.725 -17.095 15.725 -7.5 18.25 C-7.5 18.91 -7.5 19.57 -7.5 20.25 C-6.71625 20.559375 -5.9325 20.86875 -5.125 21.1875 C-2.5 22.25 -2.5 22.25 -0.5 23.25 C0.12188935 32.95838367 0.12188935 32.95838367 -2.125 37.625 C-7.5046174 43.57089291 -11.94493417 46.85914956 -20.109375 47.43359375 C-25.90237197 47.56961716 -31.04472832 47.25983694 -36.5 45.25 C-39.78464329 41.88113509 -41.38650452 39.49845024 -41.8125 34.8125 C-41.5 31.25 -41.5 31.25 -39.9375 29.5 C-31.65 25.25 -31.65 25.25 -27.5 25.25 C-27.5 25.91 -27.5 26.57 -27.5 27.25 C-28.16 27.6625 -28.82 28.075 -29.5 28.5 C-31.8664015 30.15933823 -31.8664015 30.15933823 -31.75 33.4375 C-31.62625 34.8296875 -31.62625 34.8296875 -31.5 36.25 C-26.48429974 39.33658477 -22.25327492 40.15408606 -16.5 39.25 C-12.92600891 37.89623538 -12.92600891 37.89623538 -10.5 35.25 C-9.52649222 31.6134269 -9.52649222 31.6134269 -9.5 28.25 C-10.325 28.146875 -11.15 28.04375 -12 27.9375 C-15.34729272 27.27999607 -18.20009962 26.31825532 -21.3515625 25.0625 C-23.60422353 24.21058455 -25.87652768 23.5506331 -28.1875 22.875 C-32.34183404 21.48063875 -34.91426322 19.920078 -37.5 16.25 C-38.25732895 11.0433635 -37.37979123 7.61613509 -34.5 3.25 C-25.3009087 -6.70973968 -11.00890333 -7.70623233 0 0 Z " fill="#43A6DC" transform="translate(254.5,95.75)"/>
<path d="M0 0 C2.29691522 1.87717437 3.35397519 3.40626394 5 6 C5.3125 9.375 5.3125 9.375 5 12 C2.03 12 -0.94 12 -4 12 C-4.268125 11.195625 -4.53625 10.39125 -4.8125 9.5625 C-5.4003125 8.2940625 -5.4003125 8.2940625 -6 7 C-11.5109639 5.16301203 -16.29551901 5.19261427 -21.5625 7.6875 C-24.25991983 9.76352043 -24.25991983 9.76352043 -24.375 12.75 C-24.25125 13.4925 -24.1275 14.235 -24 15 C-19.70549026 17.04965238 -15.72386979 18.31996499 -11.0625 19.3125 C-5.50972134 20.68148694 -0.50393562 22.23186034 3 27 C4.2883309 31.95202188 3.60466051 35.76742281 1.375 40.3125 C-4.31479346 46.75095049 -9.19805717 49.52568059 -17.67578125 50.21875 C-24.95659884 50.46043689 -30.82538102 49.7777916 -36.5 44.8125 C-38.63539403 40.8086362 -38.58216038 38.51174294 -38 34 C-36.4375 32.1875 -36.4375 32.1875 -34 31 C-32.824375 30.4225 -31.64875 29.845 -30.4375 29.25 C-27 28 -27 28 -24 29 C-24.99 29.804375 -24.99 29.804375 -26 30.625 C-28.27795261 32.87763478 -28.27795261 32.87763478 -28.3125 36.0625 C-28.09993931 39.05700861 -28.09993931 39.05700861 -27 42 C-17.80845548 42.86332539 -17.80845548 42.86332539 -9.1875 40.4375 C-6.40450313 37.33644634 -6.15782144 35.10335746 -6 31 C-6.804375 30.896875 -7.60875 30.79375 -8.4375 30.6875 C-12.80121676 29.84537922 -16.82456277 28.50075619 -21 27 C-21.88945312 26.69964844 -22.77890625 26.39929688 -23.6953125 26.08984375 C-27.46012072 24.73429327 -30.33523319 23.66476681 -33.1875 20.8125 C-34.40944216 16.58270023 -34.35631452 13.2017785 -33 9 C-29.73168771 3.42066216 -25.64675499 0.04545915 -19.39453125 -1.60546875 C-12.79898588 -2.69217362 -6.20596713 -2.67708386 0 0 Z " fill="#43A6DC" transform="translate(152,93)"/>
<path d="M0 0 C4.83984199 0.05679084 7.78609135 0.85414317 11.73046875 3.59765625 C15.15906873 8.92193268 12.10520196 17.99343285 10.86157227 23.85913086 C9.73980007 28.45122247 8.73508421 31.49014391 4.8125 34.4375 C-0.24252398 37.31915475 -5.37061739 38.33232948 -11.125 37.375 C-13.97026664 34.67199669 -15.97027485 32.08887858 -16.328125 28.125 C-16.50428001 17.79057252 -14.8962538 10.47059734 -7.6484375 2.87109375 C-7.14570313 2.37738281 -6.64296875 1.88367188 -6.125 1.375 C-4.42365915 -0.32634085 -2.32730597 0.08243863 0 0 Z " fill="#F6FAFC" transform="translate(186.125,98.625)"/>
<path d="M0 0 C12.65128082 3.79924134 12.65128082 3.79924134 16.9375 5.5625 C22.73460018 7.81760874 28.92078812 8.78693035 35 10 C35.81082031 10.17402344 36.62164062 10.34804687 37.45703125 10.52734375 C43.10662568 11.72454327 48.79919104 12.64798487 54.5 13.5625 C55.67502075 13.75295898 55.67502075 13.75295898 56.8737793 13.94726562 C65.92676535 15.37236869 74.8901715 16.15816942 84.0546875 16.23828125 C84.98644806 16.24798447 85.91820862 16.25768768 86.87820435 16.26768494 C89.87718059 16.29249496 92.87593153 16.30519746 95.875 16.3125 C97.41051514 16.31642761 97.41051514 16.31642761 98.97705078 16.32043457 C120.57714242 16.32634916 141.33186197 14.74141952 162 8 C164.18190018 7.39605825 166.36945222 6.81211694 168.5625 6.25 C169.95662109 5.88648438 169.95662109 5.88648438 171.37890625 5.515625 C173.991061 5.00175849 176.34548834 4.90399596 179 5 C175.38094764 8.16548966 171.40987802 9.5201313 166.9375 11.0625 C166.1839624 11.32708008 165.4304248 11.59166016 164.65405273 11.86425781 C159.49049811 13.6260514 154.42816545 14.88249481 149.00390625 15.578125 C146.78004661 15.85577487 146.78004661 15.85577487 145 18 C129.5818758 23.20495344 111.83971633 22.41116442 95.8125 22.4375 C94.80249939 22.44340149 93.79249878 22.44930298 92.75189209 22.4553833 C79.8614276 22.50628423 67.43307742 21.6585142 54.69555664 19.65917969 C49.10801595 18.80641465 43.64722404 18.67832268 38 19 C38 17.68 38 16.36 38 15 C36.989375 14.9175 35.97875 14.835 34.9375 14.75 C22.3063491 13.11801059 10.61630357 9.07753571 0 2 C0 1.34 0 0.68 0 0 Z " fill="#37A1DB" transform="translate(59,182)"/>
<path d="M0 0 C0.99 0.495 0.99 0.495 2 1 C2 1.66 2 2.32 2 3 C3.2375 2.649375 4.475 2.29875 5.75 1.9375 C8.903292 1.04406727 10.86774164 0.99118706 14 2 C13.02160156 2.29132812 12.04320312 2.58265625 11.03515625 2.8828125 C-2.50126037 7.0531838 -15.93698373 14.03594755 -23 27 C-22.2678125 27.26167969 -21.535625 27.52335937 -20.78125 27.79296875 C-14.36603839 30.57709851 -8.6190357 35.78495969 -4 41 C-4 41.66 -4 42.32 -4 43 C-6.79238709 41.72416797 -8.80249205 40.37883583 -11 38.25 C-23.72990972 27.10449964 -39.14356678 25.99539368 -55.27197266 26.76171875 C-66.18476255 27.71490319 -75.61894179 31.98819905 -84 39 C-84.72832031 39.58007812 -85.45664063 40.16015625 -86.20703125 40.7578125 C-90.62684933 44.41502746 -93.8655368 48.20035322 -97 53 C-98.65 52.67 -100.3 52.34 -102 52 C-100.19674208 42.71732005 -90.57056921 34.21140962 -83.17578125 29.015625 C-69.70069164 20.77204077 -54.39224393 16.65668705 -38.6328125 19.63671875 C-36.65341046 20.14267563 -34.68056433 20.67573481 -32.71875 21.24609375 C-29.82925281 22.047348 -26.96281224 22.55122109 -24 23 C-23.52433594 22.30777344 -23.52433594 22.30777344 -23.0390625 21.6015625 C-16.83164385 12.92489444 -9.55524756 4.9482532 0 0 Z " fill="#39A3DE" transform="translate(158,8)"/>
<path d="M0 0 C1.32 0 2.64 0 4 0 C4 1.32 4 2.64 4 4 C4.804375 3.979375 5.60875 3.95875 6.4375 3.9375 C9 4 9 4 10 5 C10.66 3.35 11.32 1.7 12 0 C14.97 0 17.94 0 21 0 C20.25339288 5.72398793 19.17122859 11.34853777 18 17 C5.66666667 17 -6.66666667 17 -19 17 C-18.67 14.03 -18.34 11.06 -18 8 C-18.99 8 -19.98 8 -21 8 C-21.33 10.64 -21.66 13.28 -22 16 C-23.32 16.33 -24.64 16.66 -26 17 C-26 16.34 -26 15.68 -26 15 C-26.99 15.66 -27.98 16.32 -29 17 C-32.5625 17.25 -32.5625 17.25 -36 17 C-38 15 -38 15 -38.375 11.625 C-38 8 -38 8 -36.4375 5.5625 C-33.15330241 3.45724514 -30.83432478 3.72114002 -27 4 C-26.01 4 -25.02 4 -24 4 C-21 4 -18 4 -15 4 C-14.34 5.65 -13.68 7.3 -13 9 C-12.7834375 8.0409375 -12.7834375 8.0409375 -12.5625 7.0625 C-12 5 -12 5 -11 4 C-9.1875 3.8671875 -9.1875 3.8671875 -7 3.875 C-6.278125 3.87242187 -5.55625 3.86984375 -4.8125 3.8671875 C-3 4 -3 4 -2 5 C-1.34 3.35 -0.68 1.7 0 0 Z M15 5 C16 9 16 9 16 9 Z M3 8 C2.67 9.65 2.34 11.3 2 13 C3.32 12.67 4.64 12.34 6 12 C6 10.68 6 9.36 6 8 C5.01 8 4.02 8 3 8 Z M-26 10 C-25 12 -25 12 -25 12 Z M-3 10 C-3 11.65 -3 13.3 -3 15 C-2.67 15 -2.34 15 -2 15 C-2 13.35 -2 11.7 -2 10 C-2.33 10 -2.66 10 -3 10 Z M14 11 C15 15 15 15 15 15 Z M-34 12 C-30 13 -30 13 -30 13 Z M9 13 C10 15 10 15 10 15 Z " fill="#FBFBFB" transform="translate(92,211)"/>
<path d="M0 0 C1.21882549 22.18262389 -3.20275426 43.33591447 -18.125 60.375 C-19.17900388 61.53838013 -20.23366481 62.70116541 -21.2890625 63.86328125 C-23.4585356 66.28419295 -25.04186745 68.64075321 -26.5 71.5625 C-29.08105417 76.13352723 -33.55716529 77.45061439 -38.2578125 79.28515625 C-41 80 -41 80 -44 79 C-42 77 -42 77 -38.74609375 75.21484375 C-27.45329703 68.87743726 -17.38975579 56.25536701 -13.6953125 43.97265625 C-12.62440166 40.01336186 -11.80013774 36.02196894 -11 32 C-10.79890625 31.16339844 -10.5978125 30.32679688 -10.390625 29.46484375 C-9.42884643 25.33356761 -8.91238108 21.23703583 -8.54296875 17.015625 C-8.46256348 16.11166992 -8.3821582 15.20771484 -8.29931641 14.27636719 C-8.14309079 12.4448231 -8.00053183 10.61205504 -7.87255859 8.77832031 C-7.76741943 7.51133301 -7.76741943 7.51133301 -7.66015625 6.21875 C-7.60480713 5.45498047 -7.54945801 4.69121094 -7.49243164 3.90429688 C-6.4395896 -0.16717953 -3.70893215 0 0 0 Z " fill="#EFF7F1" transform="translate(301,121)"/>
<path d="M0 0 C0.33 0 0.66 0 1 0 C1.04898438 1.15757813 1.09796875 2.31515625 1.1484375 3.5078125 C1.22351478 5.0468967 1.29906043 6.5859581 1.375 8.125 C1.4059375 8.88554687 1.436875 9.64609375 1.46875 10.4296875 C1.70358224 14.96977753 2.4014128 18.70225979 4 23 C4.32184888 24.51473323 4.61482515 26.03596388 4.875 27.5625 C7.96580833 43.18044816 14.00535041 54.22506565 25.01953125 65.74609375 C30 71.41420118 30 71.41420118 30 75 C30.58265625 75.17015625 31.1653125 75.3403125 31.765625 75.515625 C35.5484307 76.63381285 39.30786582 77.75018702 43.01953125 79.08984375 C52.44587771 82.4901048 58.99556711 82.47258012 68.6875 80.50390625 C73.70334584 79.74088253 78.73868144 79.57982695 83.80639648 79.42993164 C87.72268884 79.28007243 90.60786483 78.98876956 94 77 C94.99 77 95.98 77 97 77 C97 77.99 97 78.98 97 80 C89.05760109 82.09774323 81.48313062 83.31966854 73.28125 83.74609375 C70.33554314 83.97403535 67.67875582 84.44018255 64.8125 85.125 C56.06054197 86.96602677 48.49345264 85.07543305 40.1875 82.25 C39.47005615 82.01023437 38.7526123 81.77046875 38.01342773 81.5234375 C31.49777897 79.16708497 26.74699471 75.82415261 23.125 69.75 C20.99369669 66.37450654 18.72013268 63.48431553 16 60.5625 C3.51977758 46.65596645 -0.22382067 28.44110015 -0.0625 10.125 C-0.05798828 9.15046875 -0.05347656 8.1759375 -0.04882812 7.171875 C-0.03710906 4.78118566 -0.02070219 2.3906256 0 0 Z " fill="#218739" transform="translate(0,121)"/>
<path d="M0 0 C0.33 0 0.66 0 1 0 C1.43019418 10.05379723 0.44916649 19.22902364 -1.59423828 29.04150391 C-1.9581629 30.79806425 -2.29163135 32.56086969 -2.62109375 34.32421875 C-5.12834924 46.23757559 -11.42455672 54.77358972 -19.70703125 63.45703125 C-22.19037003 66.21112588 -24.04082312 68.97918818 -25.76953125 72.24609375 C-29.34338325 77.34025104 -34.47561844 79.2560875 -40.125 81.1875 C-40.87982666 81.44724609 -41.63465332 81.70699219 -42.41235352 81.97460938 C-50.97143083 84.80357312 -58.29981953 85.7152117 -67.12109375 83.60546875 C-71.47200451 82.69041968 -75.87249517 82.24932102 -80.29174805 81.78588867 C-84.42283585 81.31836297 -88.10545408 80.45138357 -92 79 C-92 78.34 -92 77.68 -92 77 C-88.85324759 77.28223216 -85.70784815 77.57755706 -82.5625 77.875 C-81.68400391 77.95363281 -80.80550781 78.03226562 -79.90039062 78.11328125 C-74.80987206 78.60167049 -69.94056132 79.38584028 -64.96362305 80.5546875 C-56.34599228 82.50900287 -49.11517271 80.70299981 -41 77.75 C-40.1745166 77.45037354 -39.3490332 77.15074707 -38.49853516 76.84204102 C-31.24558581 74.03023623 -28.28095305 70.45812346 -24 64 C-22.4139671 62.15095662 -20.80894931 60.31806599 -19.1875 58.5 C-5.17921647 41.97760772 -1.84294043 20.98751563 0 0 Z " fill="#1E8534" transform="translate(302,122)"/>
<path d="M0 0 C0.99 0.33 1.98 0.66 3 1 C3 3.31 3 5.62 3 8 C3.99 8.33 4.98 8.66 6 9 C5.34 6.03 4.68 3.06 4 0 C4.99 0.33 5.98 0.66 7 1 C8.07414368 8.08331272 7.837082 14.07980595 6.3125 21.0625 C6.15072266 21.89587891 5.98894531 22.72925781 5.82226562 23.58789062 C3.08758257 36.74919298 -3.60840756 47.92148652 -13 57.4375 C-13.48597656 57.93354736 -13.97195313 58.42959473 -14.47265625 58.94067383 C-17.99962943 62.38476314 -21.64310327 64.69629085 -26 67 C-24.72286814 63.16860441 -22.9895547 62.20246327 -19.8125 59.75 C-15.29181219 56.10898211 -11.33600763 52.75425686 -8 48 C-7.35289062 47.09636719 -6.70578125 46.19273437 -6.0390625 45.26171875 C0.78091648 34.67680714 2.84256244 23.27518518 5 11 C4.071875 10.5978125 4.071875 10.5978125 3.125 10.1875 C1 9 1 9 -1 6 C-1.01417969 6.79921875 -1.02835937 7.5984375 -1.04296875 8.421875 C-1.5214249 19.43929771 -4.03772495 28.25222021 -11.7734375 36.265625 C-14.03557917 39.46432214 -13.98269948 43.18523621 -14 47 C-14.66 47 -15.32 47 -16 47 C-16 44.36 -16 41.72 -16 39 C-16.62648438 39.28875 -17.25296875 39.5775 -17.8984375 39.875 C-18.71570313 40.24625 -19.53296875 40.6175 -20.375 41 C-21.18710937 41.37125 -21.99921875 41.7425 -22.8359375 42.125 C-25 43 -25 43 -27 43 C-27.268125 43.5775 -27.53625 44.155 -27.8125 44.75 C-29.01719859 47.0325868 -30.40798115 48.9737942 -32 51 C-31.01 51.33 -30.02 51.66 -29 52 C-29 52.66 -29 53.32 -29 54 C-31.64 54.66 -34.28 55.32 -37 56 C-37 55.01 -37 54.02 -37 53 C-38.32 53 -39.64 53 -41 53 C-40.67 52.01 -40.34 51.02 -40 50 C-38.08788193 49.06071393 -36.17236475 48.12755743 -34.23828125 47.234375 C-31.82932628 45.90587627 -30.11254514 44.39444221 -28.125 42.5 C-23.85192376 38.55757847 -17.9988516 35 -12 35 C-11.72285156 34.44054687 -11.44570313 33.88109375 -11.16015625 33.3046875 C-10.38029991 31.75547794 -9.57499754 30.21884284 -8.74609375 28.6953125 C-5.35588207 22.03632955 -4.57332856 16.55436935 -4.3125 9.12890625 C-3.89737899 4.97250716 -2.77204478 3.04030718 0 0 Z " fill="#6EB489" transform="translate(285,132)"/>
<path d="M0 0 C-3.61905236 3.16548966 -7.59012198 4.5201313 -12.0625 6.0625 C-12.8160376 6.32708008 -13.5695752 6.59166016 -14.34594727 6.86425781 C-19.50950189 8.6260514 -24.57183455 9.88249481 -29.99609375 10.578125 C-32.21995339 10.85577487 -32.21995339 10.85577487 -34 13 C-37.83545728 13.99791588 -41.77349567 14.51595391 -45.6875 15.125 C-46.81551025 15.30313232 -47.94352051 15.48126465 -49.10571289 15.66479492 C-70.31411518 18.84294241 -70.31411518 18.84294241 -76 16 C-79.568439 15.80052204 -83.13032404 15.65423735 -86.703125 15.5703125 C-87.44820312 15.539375 -88.19328125 15.5084375 -88.9609375 15.4765625 C-89.63946777 15.45674316 -90.31799805 15.43692383 -91.01708984 15.41650391 C-93.56709699 14.8808831 -95.02767491 13.6593101 -97 12 C-95.49324707 11.98598145 -95.49324707 11.98598145 -93.95605469 11.97167969 C-67.91849537 11.6891212 -41.99161298 11.15162679 -17 3 C-14.81809982 2.39605825 -12.63054778 1.81211694 -10.4375 1.25 C-9.04337891 0.88648438 -9.04337891 0.88648438 -7.62109375 0.515625 C-5.008939 0.00175849 -2.65451166 -0.09600404 0 0 Z " fill="#38A2DF" transform="translate(238,187)"/>
<path d="M0 0 C1.125 1.5 1.125 1.5 2 4 C1.57598348 6.7773082 0.81108065 9.29639783 0 12 C0.99 11.67 1.98 11.34 3 11 C3.33 8.36 3.66 5.72 4 3 C6.3369701 3.93478804 7.72345026 4.57794849 9.12109375 6.7109375 C10.20788409 9.54142257 10.16861551 11.84592781 10.1875 14.875 C10.69547547 23.34764754 14.12174411 31.18062067 19.46484375 37.8203125 C21.33046384 39.25394422 22.90922453 39.68547157 25.1875 40.25 C29.86726832 41.67824098 32.63293018 44.03505746 36.15234375 47.3515625 C39.59048742 50.41899723 43.50319807 52.1352304 48 53 C48 53.66 48 54.32 48 55 C42.37683384 54.59635688 39.65291834 53.3992699 35.5 49.625 C31.42858714 46.09269836 28.09840059 43.69946686 23 42 C23 44.31 23 46.62 23 49 C21.515 49.495 21.515 49.495 20 50 C19.99613281 49.1646875 19.99613281 49.1646875 19.9921875 48.3125 C19.69791891 42.50559984 18.25430772 39.53157473 14.6328125 35.0703125 C7.83013643 26.44490983 7.36162166 18.63963892 8 8 C7.34 8 6.68 8 6 8 C5.896875 8.598125 5.79375 9.19625 5.6875 9.8125 C5 12 5 12 3.421875 13.26953125 C1.71592184 14.97178751 1.71592184 14.97178751 2.00390625 17.6796875 C4.37306666 31.23194772 7.64195538 41.89947199 16 53 C16.62648438 53.84304687 17.25296875 54.68609375 17.8984375 55.5546875 C20.25299595 58.29437818 22.78446567 60.39697981 25.625 62.625 C28.67705645 65.0224599 30.84026165 66.76039248 33 70 C28.49720328 68.56240985 25.4475965 66.06100483 22.0625 62.875 C21.53180908 62.3792749 21.00111816 61.8835498 20.4543457 61.37280273 C16.44378677 57.55842251 12.98154873 53.68043689 10 49 C9.39285156 48.07316406 8.78570312 47.14632812 8.16015625 46.19140625 C4.60604666 40.4859338 2.20641851 35.55144655 1.2890625 28.86328125 C1.18608282 26.98930045 1.18608282 26.98930045 0 26 C-0.88659386 21.07378481 -1.13510944 16.31161882 -1.125 11.3125 C-1.12757812 10.02988281 -1.13015625 8.74726563 -1.1328125 7.42578125 C-1.02782791 4.71779629 -0.81595878 2.557966 0 0 Z " fill="#5EAD83" transform="translate(11,129)"/>
<path d="M0 0 C3.12465186 1.6748134 5.39254192 3.78508385 7 7 C7 9.31 7 11.62 7 14 C-1.91 14 -10.82 14 -20 14 C-18.86846115 7.21076689 -18.86846115 7.21076689 -16.125 4.1875 C-15.61195312 3.60355469 -15.09890625 3.01960938 -14.5703125 2.41796875 C-10.71405595 -1.06417336 -4.86673828 -0.69524833 0 0 Z " fill="#F3F9FC" transform="translate(91,99)"/>
<path d="M0 0 C-3.63890053 5.20862232 -6.4849092 7.46222707 -12.57421875 9.140625 C-22.79951515 12.76311326 -32.17600876 22.08201341 -38 31 C-39.65 30.67 -41.3 30.34 -43 30 C-41.19674208 20.71732005 -31.57056921 12.21140962 -24.17578125 7.015625 C-6.08109663 -4.05406442 -6.08109663 -4.05406442 0 0 Z " fill="#3BA3DC" transform="translate(99,30)"/>
<path d="M0 0 C3.3 0 6.6 0 10 0 C10.33 0.99 10.66 1.98 11 3 C11.39832031 2.50886719 11.79664062 2.01773438 12.20703125 1.51171875 C14.5121755 -0.43183425 15.7196719 -0.316536 18.6875 -0.1875 C19.89986328 -0.14689453 19.89986328 -0.14689453 21.13671875 -0.10546875 C21.75160156 -0.07066406 22.36648437 -0.03585938 23 0 C22.65697965 5.98511371 22.17692157 10.75117306 19 16 C16.03 16 13.06 16 10 16 C9.67 15.01 9.34 14.02 9 13 C7.68 13 6.36 13 5 13 C5.33 10.03 5.66 7.06 6 4 C3.82961523 4.79299706 3.82961523 4.79299706 3.3671875 6.84765625 C3.20476562 7.57855469 3.04234375 8.30945313 2.875 9.0625 C2.70742187 9.79597656 2.53984375 10.52945313 2.3671875 11.28515625 C2.24601562 11.85105469 2.12484375 12.41695312 2 13 C0.68 13 -0.64 13 -2 13 C-1.85851011 11.3954444 -1.71164314 9.79136233 -1.5625 8.1875 C-1.48128906 7.29417969 -1.40007812 6.40085938 -1.31640625 5.48046875 C-1 3 -1 3 0 0 Z M15 4 C14.67 5.65 14.34 7.3 14 9 C15.32 8.67 16.64 8.34 18 8 C18 6.68 18 5.36 18 4 C17.01 4 16.02 4 15 4 Z M9 9 C9 9.99 9 10.98 9 12 C9.66 11.67 10.32 11.34 11 11 C10.34 10.34 9.68 9.68 9 9 Z " fill="#FBFBFB" transform="translate(113,215)"/>
<path d="M0 0 C2.33203125 0.59375 2.33203125 0.59375 5 2 C6.51171875 4.90625 6.51171875 4.90625 7.6875 8.5 C7.89463623 9.13147949 8.10177246 9.76295898 8.31518555 10.41357422 C10.72062623 17.93858014 12.17256603 24.18537344 11.4375 32.0625 C11.30832193 36.23387505 11.57911399 37.52923626 14.40625 40.69140625 C17.19518111 42.9304579 20.06608139 44.95861513 23 47 C23.33 47.66 23.66 48.32 24 49 C23.01 49.99 22.02 50.98 21 52 C20.071875 51.175 19.14375 50.35 18.1875 49.5 C11.01067839 43.36919288 3.61749746 37.902263 -5 34 C-1.29218328 32.76406109 -0.32489747 33.4321868 3.1875 34.9375 C4.53908203 35.50791016 4.53908203 35.50791016 5.91796875 36.08984375 C6.60503906 36.39019531 7.29210937 36.69054687 8 37 C6.54234174 24.13830948 4.19413257 13.5068866 -2 2 C-1.34 2 -0.68 2 0 2 C0 1.34 0 0.68 0 0 Z " fill="#41A8DF" transform="translate(256,37)"/>
<path d="M0 0 C1.30062431 3.81516464 0.89369853 7.27561763 0.5625 11.25 C0.46066406 12.51328125 0.35882813 13.7765625 0.25390625 15.078125 C0.17011719 16.04234375 0.08632812 17.0065625 0 18 C0.66 18.33 1.32 18.66 2 19 C1.67 21.64 1.34 24.28 1 27 C-0.32 27.33 -1.64 27.66 -3 28 C-3 26.02 -3 24.04 -3 22 C-3.33 23.98 -3.66 25.96 -4 28 C-6.39073445 24.17482487 -6.55966552 20.40334476 -7 16 C-10.2542015 18.83430453 -11.5206753 20.68607774 -12 25 C-12.33 25 -12.66 25 -13 25 C-13 18.73 -13 12.46 -13 6 C-11.35 6 -9.7 6 -8 6 C-7.67 5.01 -7.34 4.02 -7 3 C-6.01 2.67 -5.02 2.34 -4 2 C-4 2.99 -4 3.98 -4 5 C-3.34 5 -2.68 5 -2 5 C-1.34 3.35 -0.68 1.7 0 0 Z " fill="#3397BB" transform="translate(14,113)"/>
<path d="M0 0 C2.475 1.485 2.475 1.485 5 3 C4.56880859 4.04220703 4.56880859 4.04220703 4.12890625 5.10546875 C-1.68097497 20.00208461 -3.48832895 34.13690292 -1 50 C-1.66 50 -2.32 50 -3 50 C-6.14991713 37.82032044 -7.99171107 25.22461515 -4 13 C-5.65 13.33 -7.3 13.66 -9 14 C-9 14.66 -9 15.32 -9 16 C-11.31 16.33 -13.62 16.66 -16 17 C-16 16.34 -16 15.68 -16 15 C-15.18015625 14.75507812 -14.3603125 14.51015625 -13.515625 14.2578125 C-6.99692126 12.14129885 -6.99692126 12.14129885 -2.3125 7.44140625 C-1.36003454 4.97269982 -0.58111924 2.57996902 0 0 Z " fill="#47ABDE" transform="translate(55,58)"/>
<path d="M0 0 C0.66 0.33 1.32 0.66 2 1 C2 1.66 2 2.32 2 3 C3.2375 2.649375 4.475 2.29875 5.75 1.9375 C8.903292 1.04406727 10.86774164 0.99118706 14 2 C13.02160156 2.29132812 12.04320312 2.58265625 11.03515625 2.8828125 C-2.50126037 7.0531838 -15.93698373 14.03594755 -23 27 C-22.2678125 27.26167969 -21.535625 27.52335937 -20.78125 27.79296875 C-14.36603839 30.57709851 -8.6190357 35.78495969 -4 41 C-4 41.66 -4 42.32 -4 43 C-6.79238709 41.72416797 -8.80249205 40.37883583 -11 38.25 C-15.70813616 34.06727947 -21.32782262 31.62652549 -27 29 C-26.34 28.34 -25.68 27.68 -25 27 C-24.4121875 25.453125 -24.4121875 25.453125 -23.8125 23.875 C-21.83963039 19.09649169 -18.52820929 15.70352404 -15 12 C-14.42894531 11.37738281 -13.85789063 10.75476562 -13.26953125 10.11328125 C-9.4044228 6.0359014 -5.19267202 2.29193799 0 0 Z " fill="#4EA9E0" transform="translate(158,8)"/>
<path d="M0 0 C12.65128082 3.79924134 12.65128082 3.79924134 16.9375 5.5625 C23.64879049 8.17323457 30.9329329 9.23343238 37.984375 10.5625 C38.85578125 10.7275 39.7271875 10.8925 40.625 11.0625 C41.38039062 11.19785156 42.13578125 11.33320313 42.9140625 11.47265625 C45.14722351 12.03721943 46.98263846 12.9000359 49 14 C47.35 14.33 45.7 14.66 44 15 C44.99 15.33 45.98 15.66 47 16 C47 16.66 47 17.32 47 18 C44.03 18.33 41.06 18.66 38 19 C38 17.68 38 16.36 38 15 C36.989375 14.9175 35.97875 14.835 34.9375 14.75 C22.3063491 13.11801059 10.61630357 9.07753571 0 2 C0 1.34 0 0.68 0 0 Z " fill="#60B4E2" transform="translate(59,182)"/>
<path d="M0 0 C-3.61905236 3.16548966 -7.59012198 4.5201313 -12.0625 6.0625 C-12.8160376 6.32708008 -13.5695752 6.59166016 -14.34594727 6.86425781 C-19.50950189 8.6260514 -24.57183455 9.88249481 -29.99609375 10.578125 C-32.21995339 10.85577487 -32.21995339 10.85577487 -34 13 C-36.36030696 13.45847689 -38.7398174 13.82143131 -41.125 14.125 C-42.40632812 14.29257813 -43.68765625 14.46015625 -45.0078125 14.6328125 C-45.99523437 14.75398437 -46.98265625 14.87515625 -48 15 C-47.67 14.01 -47.34 13.02 -47 12 C-48.65 11.67 -50.3 11.34 -52 11 C-52 10.67 -52 10.34 -52 10 C-51.43716309 9.93006836 -50.87432617 9.86013672 -50.29443359 9.78808594 C-38.82523993 8.33427741 -28.04752044 6.4455138 -17 3 C-14.81748636 2.39827895 -12.6300386 1.81409974 -10.4375 1.25 C-9.04337891 0.88648438 -9.04337891 0.88648438 -7.62109375 0.515625 C-5.008939 0.00175849 -2.65451166 -0.09600404 0 0 Z " fill="#40A6DD" transform="translate(238,187)"/>
<path d="M0 0 C2.16865078 3.25297617 2.17722152 4.42142969 2.4375 8.1875 C3.05214347 12.08712873 3.61497112 13.63178986 6.50390625 16.39453125 C8.45491163 17.76557675 10.44305064 19.08568408 12.46875 20.34375 C15 22 15 22 17 25 C16.01 25.99 15.02 26.98 14 28 C13.071875 27.175 12.14375 26.35 11.1875 25.5 C4.01067839 19.36919288 -3.38250254 13.902263 -12 10 C-7.12181488 8.37393829 -3.62284482 11.01878079 1 13 C0.67 8.71 0.34 4.42 0 0 Z " fill="#40A7DE" transform="translate(263,61)"/>
<path d="M0 0 C10.48925548 -0.33358056 20.60886221 0.69381882 31 2 C31 2.33 31 2.66 31 3 C28.69 3 26.38 3 24 3 C24.33 4.32 24.66 5.64 25 7 C22.06202558 6.69152766 19.12467718 6.37839777 16.1875 6.0625 C15.35412109 5.97548828 14.52074219 5.88847656 13.66210938 5.79882812 C12.45844727 5.66831055 12.45844727 5.66831055 11.23046875 5.53515625 C10.49207764 5.456604 9.75368652 5.37805176 8.99291992 5.29711914 C7 5 7 5 4 4 C4 3.34 4 2.68 4 2 C2.68 1.67 1.36 1.34 0 1 C0 0.67 0 0.34 0 0 Z " fill="#4BACDE" transform="translate(102,196)"/>
<path d="M0 0 C0 0.99 0 1.98 0 3 C-7.94239891 5.09774323 -15.51686938 6.31966854 -23.71875 6.74609375 C-26.66445686 6.97403535 -29.32124418 7.44018255 -32.1875 8.125 C-37.48313254 9.30180723 -42.69585853 9.14186379 -48 8 C-48.66 7.34 -49.32 6.68 -50 6 C-48.865625 6.03480469 -47.73125 6.06960937 -46.5625 6.10546875 C-45.04168162 6.13363205 -43.52084704 6.16092946 -42 6.1875 C-41.25621094 6.21263672 -40.51242188 6.23777344 -39.74609375 6.26367188 C-34.9206786 6.32661207 -31.47270576 5.55381639 -27.04492188 3.69702148 C-23.36589877 2.44300872 -19.60516844 2.50496545 -15.75 2.4375 C-10.16398759 2.31427914 -5.16809876 0 0 0 Z " fill="#127A27" transform="translate(97,198)"/>
<path d="M0 0 C1.30062431 3.81516464 0.89369853 7.27561763 0.5625 11.25 C0.46066406 12.51328125 0.35882812 13.7765625 0.25390625 15.078125 C0.17011719 16.04234375 0.08632812 17.0065625 0 18 C0.66 18.33 1.32 18.66 2 19 C1.67 21.64 1.34 24.28 1 27 C-0.32 27.33 -1.64 27.66 -3 28 C-3 26.02 -3 24.04 -3 22 C-3.33 23.98 -3.66 25.96 -4 28 C-6.25998595 24.40537669 -6.20868087 21.43404325 -6.125 17.25 C-6.09792969 15.49429688 -6.09792969 15.49429688 -6.0703125 13.703125 C-6.04710937 12.81109375 -6.02390625 11.9190625 -6 11 C-4.68 11 -3.36 11 -2 11 C-1.93941406 10.28972656 -1.87882813 9.57945313 -1.81640625 8.84765625 C-1.73261719 7.92855469 -1.64882812 7.00945312 -1.5625 6.0625 C-1.48128906 5.14597656 -1.40007813 4.22945313 -1.31640625 3.28515625 C-1 1 -1 1 0 0 Z " fill="#5CB2DC" transform="translate(14,113)"/>
<path d="M0 0 C0.33 0.99 0.66 1.98 1 3 C1.66 3 2.32 3 3 3 C2.54543566 5.04250911 2.08617174 7.0839726 1.625 9.125 C1.36976562 10.26195313 1.11453125 11.39890625 0.8515625 12.5703125 C0.05363523 15.78398288 -0.90790559 18.87566034 -2 22 C-5 21 -5 21 -7 19 C-6.63364788 12.68827638 -4.91495175 6.58699086 -2 1 C-1.34 0.67 -0.68 0.34 0 0 Z " fill="#39A0D8" transform="translate(15,97)"/>
<path d="M0 0 C0.02706445 2.89589652 0.04687029 5.79153795 0.0625 8.6875 C0.07087891 9.50412109 0.07925781 10.32074219 0.08789062 11.16210938 C0.10442051 15.24499084 0.03035098 19.01651707 -1 23 C-1.33 23 -1.66 23 -2 23 C-1.67 19.37 -1.34 15.74 -1 12 C-2.32 11.34 -3.64 10.68 -5 10 C-5.66 12.64 -6.32 15.28 -7 18 C-7.33 18 -7.66 18 -8 18 C-8.11026375 12.59707606 -8.19015105 7.30158193 -7 2 C-4 0 -4 0 0 0 Z " fill="#A3D3C8" transform="translate(301,121)"/>
<path d="M0 0 C0.33 0 0.66 0 1 0 C1.60259122 14.08278003 0.41015893 32.17968213 -6 45 C-6.66 45 -7.32 45 -8 45 C-7.3048018 39.23532282 -5.98805069 33.74803424 -4.5625 28.125 C-2.25484139 18.7895095 -0.84043894 9.57096887 0 0 Z " fill="#177F2E" transform="translate(302,122)"/>
<path d="M0 0 C10.56 0 21.12 0 32 0 C31.67 1.65 31.34 3.3 31 5 C23.25 5.125 23.25 5.125 21 4 C17.431561 3.80052204 13.86967596 3.65423735 10.296875 3.5703125 C9.55179688 3.539375 8.80671875 3.5084375 8.0390625 3.4765625 C7.36053223 3.45674316 6.68200195 3.43692383 5.98291016 3.41650391 C4 3 4 3 0 0 Z " fill="#44A8DF" transform="translate(141,199)"/>
<path d="M0 0 C2.66015848 1.33007924 2.86113475 2.61265767 4.0625 5.3125 C9.0557033 15.50271082 15.6785885 23.33530524 24.71484375 30.16015625 C27 32 27 32 29 35 C24.49704775 33.5623602 21.44794044 31.06075866 18.0625 27.875 C17.53253418 27.3807251 17.00256836 26.8864502 16.45654297 26.37719727 C12.44924952 22.57045362 8.99451607 18.66110686 6 14 C5.443125 13.15050781 4.88625 12.30101562 4.3125 11.42578125 C0 4.58767361 0 4.58767361 0 0 Z " fill="#5FAC75" transform="translate(15,164)"/>
<path d="M0 0 C1.24743403 2.83507734 0.97396996 4.07971701 0 7.0625 C-3.86912185 15.14466563 -8.71514745 22.07809637 -15 28.4375 C-15.485896 28.93338623 -15.97179199 29.42927246 -16.47241211 29.94018555 C-19.99923675 33.38473132 -23.6429473 35.69620838 -28 38 C-26.72286814 34.16860441 -24.9895547 33.20246327 -21.8125 30.75 C-11.90245382 22.75309015 -4.07895392 12.23686175 0 0 Z " fill="#5AAA70" transform="translate(287,161)"/>
<path d="M0 0 C4.99883894 2.07498975 8.46750784 6.02423818 12.34375 9.6875 C14.56043927 11.6173236 16.31516371 12.88553965 19 14 C18.67 14.66 18.34 15.32 18 16 C10.20528933 14.13835066 5.85963042 12.14153371 1.1875 5.375 C0 3 0 3 0 0 Z " fill="#E8F3EB" transform="translate(25,185)"/>
<path d="M0 0 C0.66 0 1.32 0 2 0 C1.67 0.99 1.34 1.98 1 3 C0.34 3 -0.32 3 -1 3 C-1.268125 3.5775 -1.53625 4.155 -1.8125 4.75 C-3.01719859 7.0325868 -4.40798115 8.9737942 -6 11 C-5.01 11.33 -4.02 11.66 -3 12 C-3 12.66 -3 13.32 -3 14 C-5.64 14.66 -8.28 15.32 -11 16 C-11 15.01 -11 14.02 -11 13 C-12.32 13 -13.64 13 -15 13 C-14 10 -14 10 -12.36328125 9.04296875 C-11.68652344 8.76066406 -11.00976562 8.47835937 -10.3125 8.1875 C-7.17888791 6.74165026 -5.00706381 5.24969659 -2.625 2.75 C-1.325625 1.38875 -1.325625 1.38875 0 0 Z " fill="#6AB27F" transform="translate(259,172)"/>
<path d="M0 0 C0.33 0.99 0.66 1.98 1 3 C2.64918461 3.70881051 4.31923769 4.36971413 6 5 C11.0796505 8.45311858 15.92286829 12.39678678 20 17 C20 17.66 20 18.32 20 19 C17.20761291 17.72416797 15.19750795 16.37883583 13 14.25 C8.29186384 10.06727947 2.67217738 7.62652549 -3 5 C-2.01 3.35 -1.02 1.7 0 0 Z " fill="#54AEDF" transform="translate(134,32)"/>
<path d="M0 0 C7.25381861 0.58030549 11.20170837 3.3556486 16.4375 8.125 C19.80748902 11.10382958 22.62074084 12.10627364 27 13 C27 13.66 27 14.32 27 15 C21.37683384 14.59635688 18.65291834 13.3992699 14.5 9.625 C10.42858714 6.09269836 7.09840059 3.69946686 2 2 C2 4.31 2 6.62 2 9 C1.01 9.495 1.01 9.495 0 10 C0 6.7 0 3.4 0 0 Z " fill="#64AF79" transform="translate(32,169)"/>
<path d="M0 0 C3 2 3 2 3.73046875 3.9609375 C5.00426364 10.68918744 5.21148593 17.16195479 5 24 C4.34 24 3.68 24 3 24 C1.04170706 15.91038514 -0.51917486 8.34525522 0 0 Z " fill="#35A1DD" transform="translate(263,51)"/>
<path d="M0 0 C3.47132095 1.40929697 4.88093274 2.90605083 6.75 6.125 C7.39195312 7.21167969 7.39195312 7.21167969 8.046875 8.3203125 C8.51867187 9.15175781 8.51867187 9.15175781 9 10 C8.360625 10.12375 7.72125 10.2475 7.0625 10.375 C6.381875 10.58125 5.70125 10.7875 5 11 C4.67 11.66 4.34 12.32 4 13 C2.96674014 11.57140593 1.94872366 10.13177617 0.9375 8.6875 C0.36902344 7.88699219 -0.19945312 7.08648437 -0.78515625 6.26171875 C-1.18605469 5.51535156 -1.58695312 4.76898438 -2 4 C-1 1 -1 1 0 0 Z " fill="#3DA4DD" transform="translate(279,86)"/>
<path d="M0 0 C5.21979128 -0.1799928 9.07262981 0.02905192 14 2 C14 2.33 14 2.66 14 3 C12.35 3.33 10.7 3.66 9 4 C9.99 4.33 10.98 4.66 12 5 C12 5.66 12 6.32 12 7 C7.545 7.495 7.545 7.495 3 8 C3 6.68 3 5.36 3 4 C1.68 3.67 0.36 3.34 -1 3 C0.65 2.67 2.3 2.34 4 2 C2.68 1.34 1.36 0.68 0 0 Z " fill="#79C0E6" transform="translate(94,193)"/>
<path d="M0 0 C1.43793392 0.31049726 2.8753318 0.6234776 4.3125 0.9375 C5.11300781 1.11152344 5.91351563 1.28554688 6.73828125 1.46484375 C9 2 9 2 12 3 C11.67 4.32 11.34 5.64 11 7 C5.76824163 7.38281159 2.62197306 6.21854707 -2 4 C-1.34 2.68 -0.68 1.36 0 0 Z " fill="#3CA4DE" transform="translate(122,29)"/>
<path d="M0 0 C0.33 0 0.66 0 1 0 C1.92448434 4.65131184 2.07488592 9.01346552 2 13.75 C1.71437659 18.54278093 1.71437659 18.54278093 3 23 C3.039992 24.99960012 3.04346799 27.00047242 3 29 C1.68 28.67 0.36 28.34 -1 28 C-0.979375 26.88625 -0.95875 25.7725 -0.9375 24.625 C-0.73619282 21.16784079 -0.73619282 21.16784079 -2 19 C-1.01 19 -0.02 19 1 19 C0.67 12.73 0.34 6.46 0 0 Z " fill="#D7EBED" transform="translate(288,112)"/>
<path d="M0 0 C1.70892588 0.45611901 3.41711229 0.91500891 5.125 1.375 C6.55199219 1.75785156 6.55199219 1.75785156 8.0078125 2.1484375 C11 3 11 3 13.9375 4.09375 C17.39600806 5.11718606 20.276819 5.19843227 23.875 5.125 C25.02742188 5.10695312 26.17984375 5.08890625 27.3671875 5.0703125 C28.23601563 5.04710937 29.10484375 5.02390625 30 5 C29.67 5.66 29.34 6.32 29 7 C20.19672714 7.35161001 11.2414453 7.55669459 3 4 C1.16796875 1.890625 1.16796875 1.890625 0 0 Z " fill="#399652" transform="translate(35,198)"/>
<path d="M0 0 C6.64409958 -0.21432579 12.53205867 0.48766299 19 2 C19 2.33 19 2.66 19 3 C17.35 3 15.7 3 14 3 C14 3.66 14 4.32 14 5 C7.375 5.125 7.375 5.125 4 4 C4 3.34 4 2.68 4 2 C2.68 1.67 1.36 1.34 0 1 C0 0.67 0 0.34 0 0 Z " fill="#39A5DD" transform="translate(102,196)"/>
<path d="M0 0 C0.66 1.32 1.32 2.64 2 4 C0.62169313 6.15904715 -0.77558073 8.30060158 -2.1875 10.4375 C-2.57486328 11.04916016 -2.96222656 11.66082031 -3.36132812 12.29101562 C-5.2946797 15.18305393 -6.43393842 16.81604973 -9.80078125 17.91015625 C-10.88939453 17.95462891 -10.88939453 17.95462891 -12 18 C-11.61328125 17.49210937 -11.2265625 16.98421875 -10.828125 16.4609375 C-4.81384344 8.60946352 -4.81384344 8.60946352 0 0 Z " fill="#2A9043" transform="translate(293,165)"/>
<path d="M0 0 C3.66826844 5.50240266 3.1387234 12.02887125 3.0625 18.4375 C3.05798828 19.16904297 3.05347656 19.90058594 3.04882812 20.65429688 C3.03718148 22.43623419 3.01925191 24.21812863 3 26 C2.67 26 2.34 26 2 26 C0.01088693 20.22843962 -0.2451155 15.13757259 -0.125 9.0625 C-0.11597656 8.18787109 -0.10695313 7.31324219 -0.09765625 6.41210938 C-0.0742957 4.27461936 -0.03843247 2.13727214 0 0 Z " fill="#38A1D8" transform="translate(290,113)"/>
<path d="M0 0 C-2.84049515 2.28289218 -5.57067544 3.8596934 -8.9375 5.25 C-10.18853516 5.78367188 -10.18853516 5.78367188 -11.46484375 6.328125 C-14.39200188 7.10388956 -16.10905827 6.80034461 -19 6 C-20.1446875 5.7215625 -20.1446875 5.7215625 -21.3125 5.4375 C-21.869375 5.293125 -22.42625 5.14875 -23 5 C-15.70535541 2.36582279 -7.82029795 -0.31568175 0 0 Z " fill="#6EBAE4" transform="translate(238,187)"/>
<path d="M0 0 C0.33 0 0.66 0 1 0 C1.04898438 1.15757813 1.09796875 2.31515625 1.1484375 3.5078125 C1.22351478 5.0468967 1.29906043 6.5859581 1.375 8.125 C1.4059375 8.88554687 1.436875 9.64609375 1.46875 10.4296875 C1.70389298 14.97578502 2.44442866 18.68454402 4 23 C4.07522969 25.33212027 4.09325876 27.6685311 4 30 C3.34 30.33 2.68 30.66 2 31 C0.28020944 23.8668439 -0.25870025 17.19766008 -0.125 9.875 C-0.11597656 8.91851562 -0.10695312 7.96203125 -0.09765625 6.9765625 C-0.07439827 4.65076475 -0.04172213 2.32552706 0 0 Z " fill="#218C3C" transform="translate(0,121)"/>
<path d="M0 0 C2.26954631 3.40431947 2.36549949 5.16524202 2.625 9.1875 C2.69976562 10.27417969 2.77453125 11.36085938 2.8515625 12.48046875 C2.90054687 13.31191406 2.94953125 14.14335938 3 15 C1.359375 15.68359375 1.359375 15.68359375 -1 16 C-3.796875 14.78515625 -3.796875 14.78515625 -6.75 13.0625 C-7.73484375 12.49660156 -8.7196875 11.93070313 -9.734375 11.34765625 C-10.48203125 10.90292969 -11.2296875 10.45820312 -12 10 C-7.12181488 8.37393829 -3.62284482 11.01878079 1 13 C0.67 8.71 0.34 4.42 0 0 Z " fill="#93CDEC" transform="translate(263,61)"/>
<path d="M0 0 C0.99 0 1.98 0 3 0 C2.34 1.65 1.68 3.3 1 5 C3.97 5.495 3.97 5.495 7 6 C4.09330538 6.85305168 1.68951127 7.07289715 -1.328125 6.87890625 C-2.12734375 6.83056641 -2.9265625 6.78222656 -3.75 6.73242188 C-4.575 6.67634766 -5.4 6.62027344 -6.25 6.5625 C-7.09046875 6.51029297 -7.9309375 6.45808594 -8.796875 6.40429688 C-10.8649352 6.27504311 -12.9325222 6.13825726 -15 6 C-12.31907309 3.31907309 -10.60832637 3.61329743 -6.875 3.375 C-5.77929688 3.30023437 -4.68359375 3.22546875 -3.5546875 3.1484375 C-2.71164063 3.09945313 -1.86859375 3.05046875 -1 3 C-0.67 2.01 -0.34 1.02 0 0 Z " fill="#63B8E1" transform="translate(119,28)"/>
<path d="M0 0 C0.99 0.33 1.98 0.66 3 1 C4.25 7.625 4.25 7.625 2 11 C1.01 11 0.02 11 -1 11 C-1.02688151 9.35425434 -1.04634123 7.70838587 -1.0625 6.0625 C-1.07410156 5.14597656 -1.08570312 4.22945313 -1.09765625 3.28515625 C-1 1 -1 1 0 0 Z " fill="#E2F0E6" transform="translate(2,120)"/>
<path d="M0 0 C0.99 0 1.98 0 3 0 C3.49803785 3.21548707 3.99333857 6.4312756 4.48046875 9.6484375 C4.77564771 11.55267473 5.08245866 13.45541386 5.42578125 15.3515625 C5.75 17.1875 5.75 17.1875 6 20 C5.34 20.66 4.68 21.32 4 22 C3.86722656 21.28972656 3.73445312 20.57945312 3.59765625 19.84765625 C3.42105469 18.92855469 3.24445312 18.00945312 3.0625 17.0625 C2.80146484 15.68771484 2.80146484 15.68771484 2.53515625 14.28515625 C2.22285012 12.04710156 2.22285012 12.04710156 1 11 C0.76636119 9.15108054 0.58696365 7.29511969 0.4375 5.4375 C0.35371094 4.42558594 0.26992187 3.41367188 0.18359375 2.37109375 C0.12300781 1.58863281 0.06242188 0.80617187 0 0 Z " fill="#7CBB8E" transform="translate(10,144)"/>
<path d="M0 0 C0.33 0 0.66 0 1 0 C0.99476318 0.59425781 0.98952637 1.18851562 0.98413086 1.80078125 C0.96314409 4.5338431 0.95027155 7.2668879 0.9375 10 C0.92912109 10.93457031 0.92074219 11.86914062 0.91210938 12.83203125 C0.89291108 18.32274401 1.1865807 23.56866481 2 29 C1.34 29 0.68 29 0 29 C-2.9028368 19.16260864 -1.333141 9.98830258 0 0 Z " fill="#9FD1ED" transform="translate(52,79)"/>
<path d="M0 0 C-0.99 0.33 -1.98 0.66 -3 1 C-3 1.66 -3 2.32 -3 3 C-8.71735105 5.45029331 -12.79029227 6.33266291 -19 6 C-16.26999329 3.26999329 -13.08654533 2.48902094 -9.5 1.3125 C-8.81035156 1.07466797 -8.12070312 0.83683594 -7.41015625 0.59179688 C-2.24786849 -1.12393424 -2.24786849 -1.12393424 0 0 Z " fill="#298D43" transform="translate(270,198)"/>
<path d="M0 0 C0.33 0 0.66 0 1 0 C2.0773541 7.49175465 1.8388516 14.48905184 1 22 C-1.43577332 18.23562305 -1.23476404 14.83305537 -1.1875 10.4375 C-1.1865332 9.42913086 -1.1865332 9.42913086 -1.18554688 8.40039062 C-1.1581579 5.33586829 -0.9757613 2.9272839 0 0 Z " fill="#56AFE0" transform="translate(50,76)"/>
<path d="M0 0 C1.875 0.6875 1.875 0.6875 4 2 C4.309375 2.825 4.61875 3.65 4.9375 4.5 C5.76216355 7.20929106 5.76216355 7.20929106 8.375 8.125 C9.674375 8.558125 9.674375 8.558125 11 9 C12.36365283 9.95824253 13.70794169 10.94721175 15 12 C9.10110973 11.64606658 6.09517152 10.28564461 2 6 C0.625 2.6875 0.625 2.6875 0 0 Z " fill="#178830" transform="translate(24,189)"/>
<path d="M0 0 C4.13621084 3.3810038 7.81316569 6.66590534 11 11 C10.67 11.66 10.34 12.32 10 13 C6.63486608 11.87828869 5.62706827 10.80291362 3.3125 8.1875 C2.68988281 7.50042969 2.06726563 6.81335938 1.42578125 6.10546875 C0 4 0 4 0 0 Z " fill="#278D45" transform="translate(16,178)"/>
<path d="M0 0 C1 1 1 1 1.09765625 3.72265625 C1.08605469 4.82480469 1.07445312 5.92695312 1.0625 7.0625 C1.05347656 8.16722656 1.04445313 9.27195313 1.03515625 10.41015625 C1.02355469 11.26480469 1.01195312 12.11945313 1 13 C0.67 13 0.34 13 0 13 C0 9.37 0 5.74 0 2 C-1.98 2.66 -3.96 3.32 -6 4 C-6.33 6.31 -6.66 8.62 -7 11 C-7.33 11 -7.66 11 -8 11 C-8 7.7 -8 4.4 -8 1 C-5.05549278 0.01849759 -3.06481021 -0.1613058 0 0 Z " fill="#4BA48B" transform="translate(301,119)"/>
<path d="M0 0 C0.66 0.33 1.32 0.66 2 1 C-2.95 5.95 -7.9 10.9 -13 16 C-13 11.08924079 -9.30469813 8.39044878 -6 5 C-4.05397986 3.23549584 -2.07285289 1.6178364 0 0 Z " fill="#D3EAF6" transform="translate(76,44)"/>
<path d="M0 0 C0.99 0.66 1.98 1.32 3 2 C2.33613281 1.96519531 1.67226562 1.93039063 0.98828125 1.89453125 C-6.07504953 1.55187907 -6.07504953 1.55187907 -12 5 C-12.98333671 7.49675668 -12.98333671 7.49675668 -13 10 C-12.67 10.66 -12.34 11.32 -12 12 C-12.99 11.67 -13.98 11.34 -15 11 C-15.375 7.75 -15.375 7.75 -15 4 C-10.65259486 -0.34740514 -5.87917765 -0.96306529 0 0 Z " fill="#C8E5F4" transform="translate(242,98)"/>
<path d="M0 0 C1.32 0 2.64 0 4 0 C4 0.66 4 1.32 4 2 C4.99 2.66 5.98 3.32 7 4 C7 4.66 7 5.32 7 6 C3.7 6.66 0.4 7.32 -3 8 C-2.34 7.01 -1.68 6.02 -1 5 C-1.66 4.34 -2.32 3.68 -3 3 C-1.68 2.67 -0.36 2.34 1 2 C0.67 1.34 0.34 0.68 0 0 Z " fill="#48ACE1" transform="translate(97,28)"/>
<path d="M0 0 C0.66 0.33 1.32 0.66 2 1 C1.67 1.33 1.34 1.66 1 2 C1.99 2.33 2.98 2.66 4 3 C4 3.66 4 4.32 4 5 C1.36 5.66 -1.28 6.32 -4 7 C-4 6.01 -4 5.02 -4 4 C-4.66 3.67 -5.32 3.34 -6 3 C-4.03533587 1.93224776 -2.03144641 0.93446535 0 0 Z " fill="#ABD3B6" transform="translate(252,181)"/>
<path d="M0 0 C0.33 0.66 0.66 1.32 1 2 C1.66 2 2.32 2 3 2 C2.67 4.64 2.34 7.28 2 10 C-1 9 -1 9 -3 7 C-2.67028521 3.70285207 -2.3773161 2.3773161 0 0 Z " fill="#36A1DB" transform="translate(11,109)"/>
<path d="M0 0 C2.14855454 0.6155803 4.29379625 1.24273431 6.4375 1.875 C8.22994141 2.39707031 8.22994141 2.39707031 10.05859375 2.9296875 C13 4 13 4 14 6 C13.34 6 12.68 6 12 6 C12 6.66 12 7.32 12 8 C7.69235185 6.43358249 3.93828536 4.31663844 0 2 C0 1.34 0 0.68 0 0 Z " fill="#8BC8E8" transform="translate(59,182)"/>
<path d="M0 0 C2 3 2 3 1.828125 5.4453125 C1.63734375 6.32960938 1.4465625 7.21390625 1.25 8.125 C1.06953125 9.01445313 0.8890625 9.90390625 0.703125 10.8203125 C0.47109375 11.53960937 0.2390625 12.25890625 0 13 C-0.99 13.495 -0.99 13.495 -2 14 C-1.34 11.69 -0.68 9.38 0 7 C-0.66 7 -1.32 7 -2 7 C-2.66 5.68 -3.32 4.36 -4 3 C-2.68 2.01 -1.36 1.02 0 0 Z " fill="#53AFE1" transform="translate(18,93)"/>
<path d="M0 0 C2.26918869 0.02144115 4.47674319 0.13839224 6.73046875 0.3984375 C6.40046875 1.7184375 6.07046875 3.0384375 5.73046875 4.3984375 C5.40046875 3.7384375 5.07046875 3.0784375 4.73046875 2.3984375 C2.42046875 2.3984375 0.11046875 2.3984375 -2.26953125 2.3984375 C-2.59953125 3.7184375 -2.92953125 5.0384375 -3.26953125 6.3984375 C-4.25953125 6.3984375 -5.24953125 6.3984375 -6.26953125 6.3984375 C-3.49786106 0.61408232 -3.49786106 0.61408232 0 0 Z " fill="#70BCE5" transform="translate(97.26953125,126.6015625)"/>
<path d="M0 0 C-2.49505962 2.49505962 -3.67328888 2.35948376 -7.125 2.625 C-8.03507813 2.69976562 -8.94515625 2.77453125 -9.8828125 2.8515625 C-10.93082031 2.92503906 -10.93082031 2.92503906 -12 3 C-12.33 2.01 -12.66 1.02 -13 0 C-11.58456585 -0.19658808 -10.16755969 -0.38187546 -8.75 -0.5625 C-7.96109375 -0.66691406 -7.1721875 -0.77132812 -6.359375 -0.87890625 C-3.99467126 -1.00027349 -2.2488963 -0.69633257 0 0 Z " fill="#52ADDF" transform="translate(223,193)"/>
<path d="M0 0 C0.99 0 1.98 0 3 0 C3 2.31 3 4.62 3 7 C1.68 7.33 0.36 7.66 -1 8 C-1.125 2.25 -1.125 2.25 0 0 Z " fill="#E8F2E9" transform="translate(12,133)"/>
<path d="M0 0 C0.99 0 1.98 0 3 0 C2.74476126 1.62752231 2.47025506 3.25203196 2.1875 4.875 C2.03667969 5.77992187 1.88585937 6.68484375 1.73046875 7.6171875 C1 10 1 10 -2 12 C-2.72965366 14.56282742 -2.72965366 14.56282742 -3 17 C-3.33 17 -3.66 17 -4 17 C-4 14.69 -4 12.38 -4 10 C-3.01 9.67 -2.02 9.34 -1 9 C-0.27743171 4.51866426 -0.27743171 4.51866426 0 0 Z " fill="#87C197" transform="translate(5,121)"/>
<path d="M0 0 C0 2.97 0 5.94 0 9 C-0.33 9 -0.66 9 -1 9 C-1 6.69 -1 4.38 -1 2 C-3.64 2.66 -6.28 3.32 -9 4 C-9 3.34 -9 2.68 -9 2 C-5.86501708 0.14223235 -3.62528568 -0.20140476 0 0 Z " fill="#5DAB74" transform="translate(270,169)"/>
<path d="M0 0 C0.99 0 1.98 0 3 0 C3 2.97 3 5.94 3 9 C2.01 9 1.02 9 0 9 C0 6.03 0 3.06 0 0 Z " fill="#F0F8F2" transform="translate(297,121)"/>
<path d="M0 0 C0 0.99 0 1.98 0 3 C-3.87684087 4.19287411 -6.91621923 5 -11 5 C-11 4.34 -11 3.68 -11 3 C-9.73160474 2.49384702 -8.46016898 1.99530901 -7.1875 1.5 C-6.12595703 1.08234375 -6.12595703 1.08234375 -5.04296875 0.65625 C-3 0 -3 0 0 0 Z " fill="#358E4B" transform="translate(97,198)"/>
<path d="M0 0 C4.54805635 -0.17835515 7.8794254 0.00214565 12 2 C12 2.33 12 2.66 12 3 C8.7 3 5.4 3 2 3 C2 2.34 2 1.68 2 1 C1.34 0.67 0.68 0.34 0 0 Z " fill="#3EA4DB" transform="translate(87,193)"/>
<path d="M0 0 C0.99 0.33 1.98 0.66 3 1 C2.360625 1.598125 1.72125 2.19625 1.0625 2.8125 C-1.87139517 7.34670163 -1.81430312 11.69835408 -2 17 C-2.33 17 -2.66 17 -3 17 C-3.08126087 14.91731407 -3.13930839 12.83371342 -3.1875 10.75 C-3.22230469 9.58984375 -3.25710938 8.4296875 -3.29296875 7.234375 C-2.97982934 3.77731593 -2.34290892 2.48434437 0 0 Z " fill="#4FA467" transform="translate(285,132)"/>
<path d="M0 0 C0.68359375 1.796875 0.68359375 1.796875 1 4 C-0.21484375 5.703125 -0.21484375 5.703125 -1.9375 7.25 C-2.50339844 7.77078125 -3.06929687 8.2915625 -3.65234375 8.828125 C-4.09707031 9.21484375 -4.54179687 9.6015625 -5 10 C-5.66 9.67 -6.32 9.34 -7 9 C-6.02180976 7.68677212 -5.0424189 6.37443848 -4.0625 5.0625 C-3.51722656 4.33160156 -2.97195312 3.60070312 -2.41015625 2.84765625 C-1 1 -1 1 0 0 Z " fill="#41A2DE" transform="translate(141,22)"/>
<path d="M0 0 C4.22797927 2.55440415 4.22797927 2.55440415 6 5 C6.53255567 8.7174474 6.35275316 12.26996191 6 16 C5.67 16 5.34 16 5 16 C4.96132813 15.11248047 4.96132813 15.11248047 4.921875 14.20703125 C4.53752258 8.85230322 3.79066885 6.03522813 0 2 C0 1.34 0 0.68 0 0 Z " fill="#7CBB8E" transform="translate(26,163)"/>
<path d="M0 0 C-0.66 0.66 -1.32 1.32 -2 2 C-2.99 2 -3.98 2 -5 2 C-5 2.66 -5 3.32 -5 4 C-7.31 4.33 -9.62 4.66 -12 5 C-12 4.34 -12 3.68 -12 3 C-10.3789897 2.30314502 -8.75303934 1.61777139 -7.125 0.9375 C-6.22007813 0.55464844 -5.31515625 0.17179687 -4.3828125 -0.22265625 C-2 -1 -2 -1 0 0 Z " fill="#3596D7" transform="translate(51,70)"/>
<path d="M0 0 C1.15224028 0.92961422 2.29659176 1.8690125 3.4375 2.8125 C4.07558594 3.33457031 4.71367187 3.85664062 5.37109375 4.39453125 C7 6 7 6 8 9 C4.05860922 7.33248852 1.2107188 4.77289351 -2 2 C-1.34 1.34 -0.68 0.68 0 0 Z " fill="#8FCAEA" transform="translate(146,42)"/>
<path d="M0 0 C2.4294516 3.6441774 2.16179575 5.71241272 2 10 C1.01 10.495 1.01 10.495 0 11 C-0.19406478 9.35492782 -0.38007935 7.70890406 -0.5625 6.0625 C-0.66691406 5.14597656 -0.77132812 4.22945312 -0.87890625 3.28515625 C-0.91886719 2.53105469 -0.95882812 1.77695313 -1 1 C-0.67 0.67 -0.34 0.34 0 0 Z " fill="#3E9C57" transform="translate(2,141)"/>
<path d="M0 0 C0.66 0.33 1.32 0.66 2 1 C1.88490339 2.41750563 1.75746342 3.83401169 1.625 5.25 C1.55539063 6.03890625 1.48578125 6.8278125 1.4140625 7.640625 C0.98492887 10.085877 0.21399362 11.84836903 -1 14 C-1.18451025 4.58997722 -1.18451025 4.58997722 0 0 Z " fill="#329FD9" transform="translate(52,69)"/>
<path d="M0 0 C2.125 0.9375 2.125 0.9375 4 2 C4 3.65 4 5.3 4 7 C1.96166576 5.7260411 -0.03852126 4.38938077 -2 3 C-2 2.34 -2 1.68 -2 1 C-1.34 0.67 -0.68 0.34 0 0 Z " fill="#4CADE0" transform="translate(266,75)"/>
<path d="M0 0 C-4.30769231 3.07692308 -4.30769231 3.07692308 -7.8125 2.6875 C-8.534375 2.460625 -9.25625 2.23375 -10 2 C-9.67 1.34 -9.34 0.68 -9 0 C-5.65506316 -0.99444068 -3.31044803 -1.10348268 0 0 Z " fill="#C2E2E9" transform="translate(215,197)"/>
<path d="M0 0 C0 0.66 0 1.32 0 2 C-0.9590625 2.6496875 -0.9590625 2.6496875 -1.9375 3.3125 C-4.49927596 5.40849852 -4.65221564 6.78299472 -5 10 C-5.33 10 -5.66 10 -6 10 C-6.29296875 3.9453125 -6.29296875 3.9453125 -6 2 C-3 0 -3 0 0 0 Z " fill="#72BCE5" transform="translate(227,121)"/>
<path d="M0 0 C0.99 0.33 1.98 0.66 3 1 C-1.455 4.465 -1.455 4.465 -6 8 C-6 7.01 -6 6.02 -6 5 C-3.1875 2.25 -3.1875 2.25 0 0 Z " fill="#60AD76" transform="translate(266,191)"/>
<path d="M0 0 C0.66 0 1.32 0 2 0 C1.67 1.65 1.34 3.3 1 5 C3.64 5 6.28 5 9 5 C9.33 4.01 9.66 3.02 10 2 C10 3.32 10 4.64 10 6 C6.7 6 3.4 6 0 6 C-0.38218767 4.34385343 -0.71395102 2.67542976 -1 1 C-0.67 0.67 -0.34 0.34 0 0 Z " fill="#ABD7EF" transform="translate(192,137)"/>
<path d="M0 0 C1.65 0 3.3 0 5 0 C5 1.32 5 2.64 5 4 C3.35 4 1.7 4 0 4 C0 2.68 0 1.36 0 0 Z " fill="#F8F8F8" transform="translate(238,224)"/>
<path d="M0 0 C0.66 0.33 1.32 0.66 2 1 C1.04882866 2.1725131 0.08882991 3.33787015 -0.875 4.5 C-1.40867188 5.1496875 -1.94234375 5.799375 -2.4921875 6.46875 C-2.98976562 6.9740625 -3.48734375 7.479375 -4 8 C-4.66 8 -5.32 8 -6 8 C-4.55746343 4.63408134 -2.66735273 2.48952921 0 0 Z " fill="#62B5E2" transform="translate(173,96)"/>
<path d="M0 0 C2.64 0.33 5.28 0.66 8 1 C8 1.99 8 2.98 8 4 C5.36 3.34 2.72 2.68 0 2 C0 1.34 0 0.68 0 0 Z " fill="#7BBA8D" transform="translate(46,184)"/>
<path d="M0 0 C0.33 0 0.66 0 1 0 C1.12375 0.969375 1.2475 1.93875 1.375 2.9375 C1.684375 4.4534375 1.684375 4.4534375 2 6 C2.66 6.33 3.32 6.66 4 7 C4 7.66 4 8.32 4 9 C1.00675737 7.9024777 0.15389099 7.32317108 -1.25 4.375 C-1.4975 3.59125 -1.745 2.8075 -2 2 C-1.34 1.34 -0.68 0.68 0 0 Z " fill="#A0CEAD" transform="translate(286,134)"/>
<path d="M0 0 C0.99 0.99 1.98 1.98 3 3 C0.375 7.875 0.375 7.875 -3 9 C-3 8.34 -3 7.68 -3 7 C-2.34 6.67 -1.68 6.34 -1 6 C-0.34227572 2.97065509 -0.34227572 2.97065509 0 0 Z " fill="#A7D1B3" transform="translate(15,134)"/>
<path d="M0 0 C3 2 3 2 3.6875 5.125 C3.8421875 6.548125 3.8421875 6.548125 4 8 C2.68 8 1.36 8 0 8 C0 5.36 0 2.72 0 0 Z " fill="#389BCD" transform="translate(263,51)"/>
<path d="M0 0 C3.02419525 0.58803797 6.01758453 1.22678118 9 2 C9 2.66 9 3.32 9 4 C4.545 3.01 4.545 3.01 0 2 C0 1.34 0 0.68 0 0 Z " fill="#14762C" transform="translate(210,199)"/>
<path d="M0 0 C2.64 0.33 5.28 0.66 8 1 C4.77208445 3.1519437 3.71599191 3.20086443 0 3 C0 2.01 0 1.02 0 0 Z " fill="#F5FAFC" transform="translate(97,198)"/>
<path d="M0 0 C1.53445094 3.06890187 0.54984289 5.70094266 0 9 C-0.99 8.34 -1.98 7.68 -3 7 C-2.25 2.25 -2.25 2.25 0 0 Z " fill="#48ACE3" transform="translate(11,109)"/>
<path d="M0 0 C1.32 0 2.64 0 4 0 C4 1.32 4 2.64 4 4 C2.68 4 1.36 4 0 4 C0 2.68 0 1.36 0 0 Z " fill="#FDFDFD" transform="translate(244,224)"/>
</svg>
